<?xml version="1.0" encoding="UTF-8" standalone="no"?>
<!DOCTYPE svg PUBLIC "-//W3C//DTD SVG 1.1//EN" "http://www.w3.org/Graphics/SVG/1.1/DTD/svg11.dtd">
<svg version="1.1" xmlns="http://www.w3.org/2000/svg" xmlns:xlink="http://www.w3.org/1999/xlink" preserveAspectRatio="xMidYMid meet" viewBox="0 0 420 595" width="420" height="595"><defs><path d="M0 0L420 0L420 595L0 595L0 0Z" id="g2CxXIJ2d"></path><clipPath id="clipa5tHqZ9Nn"><use xlink:href="#g2CxXIJ2d" opacity="1"></use></clipPath><path d="M279.7 392C342.57 392 374 418.03 374 470.09C374 470.09 374 470.09 374 470.09C374 522.15 342.57 548.18 279.7 548.18C196.06 548.18 149.59 548.18 140.3 548.18C77.43 548.18 46 522.15 46 470.09C46 470.09 46 470.09 46 470.09C46 418.03 77.43 392 140.3 392C223.94 392 270.41 392 279.7 392Z" id="b64FF8LW4"></path><clipPath id="clipb1cLBtc0V7"><use xlink:href="#b64FF8LW4" opacity="1"></use></clipPath><path d="M155.86 393.97L155.86 545.63L151.76 545.63L151.76 394.28L147.66 394.27L147.66 545.63L143.55 545.63L143.55 394.27L139.45 394.27L139.45 546.06L135.35 546.27L135.35 394.55L131.25 394.74L131.25 545.63L127.15 544.47L127.15 395.72L123.05 395.72L123.05 544.47L118.95 544.47L118.95 395.72L114.84 396.35L114.84 543.96L110.74 542.93L110.74 396.88L106.64 398.04L106.64 542.14L102.54 540.98L102.54 399.2L98.44 400.06L98.44 540.21L94.34 539.04L94.34 401.03L90.23 402.54L90.23 537.49L86.13 535.88L86.13 404.29L82.03 406.17L82.03 533.27L77.93 530.52L77.93 408.5L73.83 411.98L73.83 528.2L69.73 524.71L69.73 415.47L65.63 420.12L65.63 520.06L61.52 515.41L61.52 423.61L57.42 431.74L57.42 506.12L53.32 497.98L53.32 442.2" id="b21ztBB2Oq"></path><path d="M180.47 394.55L180.47 545.81L176.37 545.63L176.37 394.55L172.27 394.55L172.27 545.05L168.16 545.05L168.16 394.55L164.06 394.55L164.06 545.27L159.96 545.37L159.96 394.55" id="a2cQfMz2mI"></path><path d="M205.08 394.55L205.08 545.81L200.98 545.63L200.98 394.55L196.88 394.55L196.88 545.05L192.77 545.05L192.77 394.55L188.67 394.55L188.67 545.27L184.57 545.37L184.57 394.55" id="dEG3UM8ln"></path><path d="M262.5 394.08L262.5 545.74L266.6 545.74L266.6 394.39L270.7 394.38L270.7 545.74L274.8 545.74L274.8 394.38L278.91 394.38L278.91 546.18L283.01 546.38L283.01 394.67L287.11 394.85L287.11 545.74L291.21 544.58L291.21 395.83L295.31 395.83L295.31 544.58L299.41 544.58L299.41 395.83L303.52 396.46L303.52 544.07L307.62 543.04L307.62 396.99L311.72 398.15L311.72 542.25L315.82 541.09L315.82 399.31L319.92 400.18L319.92 540.32L324.02 539.16L324.02 401.14L328.13 402.65L328.13 537.6L332.23 535.99L332.23 404.41L336.33 406.29L336.33 533.38L340.43 530.63L340.43 408.61L344.53 412.1L344.53 528.31L348.63 524.82L348.63 415.58L352.73 420.23L352.73 520.17L356.84 515.52L356.84 423.72L360.94 431.85L360.94 506.23L365.04 498.09L365.04 442.31" id="asdKFQyws"></path><path d="M237.89 394.67L237.89 545.92L241.99 545.74L241.99 394.67L246.09 394.67L246.09 545.16L250.2 545.16L250.2 394.67L254.3 394.67L254.3 545.38L258.4 545.49L258.4 394.67" id="b3xNR5rFaQ"></path><path d="M213.28 394.67L213.28 545.92L217.38 545.74L217.38 394.67L221.48 394.67L221.48 545.16L225.59 545.16L225.59 394.67L229.69 394.67L229.69 545.38L233.79 545.49L233.79 394.67" id="edatk9LNj"></path><path d="M209.18 546.21L209.18 394.55" id="dSiPiaJAB"></path><path d="M279.7 219.41C342.57 219.41 374 245.44 374 297.5C374 297.5 374 297.5 374 297.5C374 349.56 342.57 375.59 279.7 375.59C196.06 375.59 149.59 375.59 140.3 375.59C77.43 375.59 46 349.56 46 297.5C46 297.5 46 297.5 46 297.5C46 245.44 77.43 219.41 140.3 219.41C223.94 219.41 270.41 219.41 279.7 219.41Z" id="ejTKfq3EB"></path><clipPath id="clipiZQgfSN7I"><use xlink:href="#ejTKfq3EB" opacity="1"></use></clipPath><path d="M155.86 221.38L155.86 373.04L151.76 373.04L151.76 221.69L147.66 221.68L147.66 373.04L143.55 373.04L143.55 221.68L139.45 221.68L139.45 373.47L135.35 373.68L135.35 221.96L131.25 222.15L131.25 373.04L127.15 371.88L127.15 223.13L123.05 223.13L123.05 371.88L118.95 371.88L118.95 223.13L114.84 223.76L114.84 371.37L110.74 370.34L110.74 224.29L106.64 225.45L106.64 369.55L102.54 368.39L102.54 226.61L98.44 227.47L98.44 367.62L94.34 366.45L94.34 228.44L90.23 229.95L90.23 364.9L86.13 363.29L86.13 231.7L82.03 233.58L82.03 360.68L77.93 357.93L77.93 235.91L73.83 239.39L73.83 355.61L69.73 352.12L69.73 242.88L65.63 247.53L65.63 347.47L61.52 342.82L61.52 251.02L57.42 259.15L57.42 333.53L53.32 325.39L53.32 269.61" id="bqrcyJjAb"></path><path d="M180.47 221.96L180.47 373.22L176.37 373.04L176.37 221.96L172.27 221.96L172.27 372.46L168.16 372.46L168.16 221.96L164.06 221.96L164.06 372.67L159.96 372.78L159.96 221.96" id="a3WspbehsN"></path><path d="M205.08 221.96L205.08 373.22L200.98 373.04L200.98 221.96L196.88 221.96L196.88 372.46L192.77 372.46L192.77 221.96L188.67 221.96L188.67 372.67L184.57 372.78L184.57 221.96" id="ayorxLIaz"></path><path d="M262.5 221.49L262.5 373.15L266.6 373.15L266.6 221.8L270.7 221.79L270.7 373.15L274.8 373.15L274.8 221.79L278.91 221.79L278.91 373.58L283.01 373.79L283.01 222.08L287.11 222.26L287.11 373.15L291.21 371.99L291.21 223.24L295.31 223.24L295.31 371.99L299.41 371.99L299.41 223.24L303.52 223.87L303.52 371.48L307.62 370.45L307.62 224.4L311.72 225.56L311.72 369.66L315.82 368.5L315.82 226.72L319.92 227.59L319.92 367.73L324.02 366.57L324.02 228.55L328.13 230.06L328.13 365.01L332.23 363.4L332.23 231.82L336.33 233.7L336.33 360.79L340.43 358.04L340.43 236.02L344.53 239.51L344.53 355.72L348.63 352.23L348.63 242.99L352.73 247.64L352.73 347.58L356.84 342.93L356.84 251.13L360.94 259.26L360.94 333.64L365.04 325.5L365.04 269.72" id="a5g0LCB6pW"></path><path d="M237.89 222.08L237.89 373.33L241.99 373.15L241.99 222.08L246.09 222.08L246.09 372.57L250.2 372.57L250.2 222.08L254.3 222.08L254.3 372.79L258.4 372.9L258.4 222.08" id="c4RdUpow7q"></path><path d="M213.28 222.08L213.28 373.33L217.38 373.15L217.38 222.08L221.48 222.08L221.48 372.57L225.59 372.57L225.59 222.08L229.69 222.08L229.69 372.79L233.79 372.9L233.79 222.08" id="a1X54QJ7s9"></path><path d="M209.18 373.62L209.18 221.96" id="j1kQ6el31x"></path><path d="M279.7 46C342.57 46 374 72.03 374 124.09C374 124.09 374 124.09 374 124.09C374 176.15 342.57 202.18 279.7 202.18C196.06 202.18 149.59 202.18 140.3 202.18C77.43 202.18 46 176.15 46 124.09C46 124.09 46 124.09 46 124.09C46 72.03 77.43 46 140.3 46C223.94 46 270.41 46 279.7 46Z" id="a1Hdwx5Zi2"></path><clipPath id="clipa1L2fkyoEc"><use xlink:href="#a1Hdwx5Zi2" opacity="1"></use></clipPath><path d="M155.86 47.97L155.86 199.62L151.76 199.62L151.76 48.28L147.66 48.27L147.66 199.62L143.55 199.62L143.55 48.26L139.45 48.26L139.45 200.06L135.35 200.27L135.35 48.55L131.25 48.73L131.25 199.62L127.15 198.46L127.15 49.71L123.05 49.71L123.05 198.46L118.95 198.46L118.95 49.71L114.84 50.35L114.84 197.96L110.74 196.93L110.74 50.87L106.64 52.04L106.64 196.14L102.54 194.98L102.54 53.2L98.44 54.06L98.44 194.21L94.34 193.04L94.34 55.02L90.23 56.54L90.23 191.49L86.13 189.88L86.13 58.29L82.03 60.17L82.03 187.26L77.93 184.52L77.93 62.49L73.83 65.98L73.83 182.19L69.73 178.71L69.73 69.47L65.63 74.12L65.63 174.06L61.52 169.41L61.52 77.6L57.42 85.74L57.42 160.11L53.32 151.98L53.32 96.2" id="er6BzurHI"></path><path d="M180.47 48.55L180.47 199.81L176.37 199.62L176.37 48.55L172.27 48.55L172.27 199.04L168.16 199.04L168.16 48.55L164.06 48.55L164.06 199.26L159.96 199.37L159.96 48.55" id="b3L6DGjjlz"></path><path d="M205.08 48.55L205.08 199.81L200.98 199.62L200.98 48.55L196.88 48.55L196.88 199.04L192.77 199.04L192.77 48.55L188.67 48.55L188.67 199.26L184.57 199.37L184.57 48.55" id="avjFvDGTf"></path><path d="M262.5 48.08L262.5 199.74L266.6 199.74L266.6 48.39L270.7 48.38L270.7 199.74L274.8 199.74L274.8 48.38L278.91 48.38L278.91 200.17L283.01 200.38L283.01 48.66L287.11 48.85L287.11 199.74L291.21 198.57L291.21 49.82L295.31 49.82L295.31 198.57L299.41 198.57L299.41 49.82L303.52 50.46L303.52 198.07L307.62 197.04L307.62 50.99L311.72 52.15L311.72 196.25L315.82 195.09L315.82 53.31L319.92 54.17L319.92 194.32L324.02 193.15L324.02 55.14L328.13 56.65L328.13 191.6L332.23 189.99L332.23 58.4L336.33 60.28L336.33 187.37L340.43 184.63L340.43 62.61L344.53 66.09L344.53 182.3L348.63 178.82L348.63 69.58L352.73 74.23L352.73 174.17L356.84 169.52L356.84 77.71L360.94 85.85L360.94 160.22L365.04 152.09L365.04 96.31" id="e2lskYlAN"></path><path d="M237.89 48.66L237.89 199.92L241.99 199.74L241.99 48.66L246.09 48.66L246.09 199.15L250.2 199.15L250.2 48.66L254.3 48.66L254.3 199.37L258.4 199.48L258.4 48.66" id="aVoYWdFLL"></path><path d="M213.28 48.66L213.28 199.92L217.38 199.74L217.38 48.66L221.48 48.66L221.48 199.15L225.59 199.15L225.59 48.66L229.69 48.66L229.69 199.37L233.79 199.48L233.79 48.66" id="c1GrhvPoxx"></path><path d="M209.18 200.2L209.18 48.55" id="a3OHY1VtC"></path></defs><g><g><g><use xlink:href="#g2CxXIJ2d" opacity="1" fill="#ffffff" fill-opacity="1"></use><g clip-path="url(#clipa5tHqZ9Nn)"><use xlink:href="#g2CxXIJ2d" opacity="1" fill-opacity="0" stroke="#000000" stroke-width="12" stroke-opacity="1"></use></g></g><g><g clip-path="url(#clipb1cLBtc0V7)"><use xlink:href="#b64FF8LW4" opacity="1" fill-opacity="0" stroke="#ff0000" stroke-width="12" stroke-opacity="1"></use></g></g><g><g><g><g><use xlink:href="#b21ztBB2Oq" opacity="1" fill-opacity="0" stroke="#ff0000" stroke-width="1" stroke-opacity="1"></use></g></g><g><g><use xlink:href="#a2cQfMz2mI" opacity="1" fill-opacity="0" stroke="#ff0000" stroke-width="1" stroke-opacity="1"></use></g></g><g><g><use xlink:href="#dEG3UM8ln" opacity="1" fill-opacity="0" stroke="#ff0000" stroke-width="1" stroke-opacity="1"></use></g></g></g><g><g><g><use xlink:href="#asdKFQyws" opacity="1" fill-opacity="0" stroke="#ff0000" stroke-width="1" stroke-opacity="1"></use></g></g><g><g><use xlink:href="#b3xNR5rFaQ" opacity="1" fill-opacity="0" stroke="#ff0000" stroke-width="1" stroke-opacity="1"></use></g></g><g><g><use xlink:href="#edatk9LNj" opacity="1" fill-opacity="0" stroke="#ff0000" stroke-width="1" stroke-opacity="1"></use></g></g></g><g><g><use xlink:href="#dSiPiaJAB" opacity="1" fill-opacity="0" stroke="#ff0000" stroke-width="1" stroke-opacity="1"></use></g></g></g><g><g clip-path="url(#clipiZQgfSN7I)"><use xlink:href="#ejTKfq3EB" opacity="1" fill-opacity="0" stroke="#ff0000" stroke-width="12" stroke-opacity="1"></use></g></g><g><g><g><g><use xlink:href="#bqrcyJjAb" opacity="1" fill-opacity="0" stroke="#ff0000" stroke-width="1" stroke-opacity="1"></use></g></g><g><g><use xlink:href="#a3WspbehsN" opacity="1" fill-opacity="0" stroke="#ff0000" stroke-width="1" stroke-opacity="1"></use></g></g><g><g><use xlink:href="#ayorxLIaz" opacity="1" fill-opacity="0" stroke="#ff0000" stroke-width="1" stroke-opacity="1"></use></g></g></g><g><g><g><use xlink:href="#a5g0LCB6pW" opacity="1" fill-opacity="0" stroke="#ff0000" stroke-width="1" stroke-opacity="1"></use></g></g><g><g><use xlink:href="#c4RdUpow7q" opacity="1" fill-opacity="0" stroke="#ff0000" stroke-width="1" stroke-opacity="1"></use></g></g><g><g><use xlink:href="#a1X54QJ7s9" opacity="1" fill-opacity="0" stroke="#ff0000" stroke-width="1" stroke-opacity="1"></use></g></g></g><g><g><use xlink:href="#j1kQ6el31x" opacity="1" fill-opacity="0" stroke="#ff0000" stroke-width="1" stroke-opacity="1"></use></g></g></g><g><g clip-path="url(#clipa1L2fkyoEc)"><use xlink:href="#a1Hdwx5Zi2" opacity="1" fill-opacity="0" stroke="#ff0000" stroke-width="12" stroke-opacity="1"></use></g></g><g><g><g><g><use xlink:href="#er6BzurHI" opacity="1" fill-opacity="0" stroke="#ff0000" stroke-width="1" stroke-opacity="1"></use></g></g><g><g><use xlink:href="#b3L6DGjjlz" opacity="1" fill-opacity="0" stroke="#ff0000" stroke-width="1" stroke-opacity="1"></use></g></g><g><g><use xlink:href="#avjFvDGTf" opacity="1" fill-opacity="0" stroke="#ff0000" stroke-width="1" stroke-opacity="1"></use></g></g></g><g><g><g><use xlink:href="#e2lskYlAN" opacity="1" fill-opacity="0" stroke="#ff0000" stroke-width="1" stroke-opacity="1"></use></g></g><g><g><use xlink:href="#aVoYWdFLL" opacity="1" fill-opacity="0" stroke="#ff0000" stroke-width="1" stroke-opacity="1"></use></g></g><g><g><use xlink:href="#c1GrhvPoxx" opacity="1" fill-opacity="0" stroke="#ff0000" stroke-width="1" stroke-opacity="1"></use></g></g></g><g><g><use xlink:href="#a3OHY1VtC" opacity="1" fill-opacity="0" stroke="#ff0000" stroke-width="1" stroke-opacity="1"></use></g></g></g></g></g></svg>