<?xml version="1.0" encoding="UTF-8" standalone="no"?>
<!DOCTYPE svg PUBLIC "-//W3C//DTD SVG 1.1//EN" "http://www.w3.org/Graphics/SVG/1.1/DTD/svg11.dtd">
<svg version="1.1" xmlns="http://www.w3.org/2000/svg" xmlns:xlink="http://www.w3.org/1999/xlink" preserveAspectRatio="xMidYMid meet" viewBox="0 0 420 595" width="420" height="595"><defs><path d="M0 0L420 0L420 595L0 595L0 0Z" id="b3vEm9kIk"></path><clipPath id="clipabtvM047d"><use xlink:href="#b3vEm9kIk" opacity="1"></use></clipPath><path d="M279.7 219.41C342.57 219.41 374 245.44 374 297.5C374 297.5 374 297.5 374 297.5C374 349.56 342.57 375.59 279.7 375.59C196.06 375.59 149.59 375.59 140.3 375.59C77.43 375.59 46 349.56 46 297.5C46 297.5 46 297.5 46 297.5C46 245.44 77.43 219.41 140.3 219.41C223.94 219.41 270.41 219.41 279.7 219.41Z" id="abWKrjYqZ"></path><clipPath id="clipb2KmN6xd5C"><use xlink:href="#abWKrjYqZ" opacity="1"></use></clipPath></defs><g><g><g><use xlink:href="#b3vEm9kIk" opacity="1" fill="#ffffff" fill-opacity="1"></use><g clip-path="url(#clipabtvM047d)"><use xlink:href="#b3vEm9kIk" opacity="1" fill-opacity="0" stroke="#000000" stroke-width="12" stroke-opacity="1"></use></g></g><g><use xlink:href="#abWKrjYqZ" opacity="1" fill="#ff0000" fill-opacity="1"></use><g clip-path="url(#clipb2KmN6xd5C)"><use xlink:href="#abWKrjYqZ" opacity="1" fill-opacity="0" stroke="#ff0000" stroke-width="12" stroke-opacity="1"></use></g></g></g></g></svg>