<?xml version="1.0" encoding="UTF-8" standalone="no"?>
<!DOCTYPE svg PUBLIC "-//W3C//DTD SVG 1.1//EN" "http://www.w3.org/Graphics/SVG/1.1/DTD/svg11.dtd">
<svg version="1.1" xmlns="http://www.w3.org/2000/svg" xmlns:xlink="http://www.w3.org/1999/xlink" preserveAspectRatio="xMidYMid meet" viewBox="0 0 420 595" width="420" height="595"><defs><path d="M0 0L420 0L420 595L0 595L0 0Z" id="a14l3A4Hqf"></path><clipPath id="clipd1YcD9V9f5"><use xlink:href="#a14l3A4Hqf" opacity="1"></use></clipPath><path d="M279.7 317C342.57 317 374 343.03 374 395.09C374 395.09 374 395.09 374 395.09C374 447.15 342.57 473.18 279.7 473.18C196.06 473.18 149.59 473.18 140.3 473.18C77.43 473.18 46 447.15 46 395.09C46 395.09 46 395.09 46 395.09C46 343.03 77.43 317 140.3 317C223.94 317 270.41 317 279.7 317Z" id="b42aBWfJ6W"></path><clipPath id="cliph1OvwcLuyx"><use xlink:href="#b42aBWfJ6W" opacity="1"></use></clipPath><path d="M155.86 318.97L155.86 470.63L151.76 470.63L151.76 319.28L147.66 319.27L147.66 470.63L143.55 470.63L143.55 319.27L139.45 319.27L139.45 471.06L135.35 471.27L135.35 319.55L131.25 319.74L131.25 470.63L127.15 469.47L127.15 320.72L123.05 320.72L123.05 469.47L118.95 469.47L118.95 320.72L114.84 321.35L114.84 468.96L110.74 467.93L110.74 321.88L106.64 323.04L106.64 467.14L102.54 465.98L102.54 324.2L98.44 325.06L98.44 465.21L94.34 464.04L94.34 326.03L90.23 327.54L90.23 462.49L86.13 460.88L86.13 329.29L82.03 331.17L82.03 458.27L77.93 455.52L77.93 333.5L73.83 336.98L73.83 453.2L69.73 449.71L69.73 340.47L65.63 345.12L65.63 445.06L61.52 440.41L61.52 348.61L57.42 356.74L57.42 431.12L53.32 422.98L53.32 367.2" id="l2wFGWETKf"></path><path d="M180.47 319.55L180.47 470.81L176.37 470.63L176.37 319.55L172.27 319.55L172.27 470.05L168.16 470.05L168.16 319.55L164.06 319.55L164.06 470.26L159.96 470.37L159.96 319.55" id="bMeKb0gq0"></path><path d="M205.08 319.55L205.08 470.81L200.98 470.63L200.98 319.55L196.88 319.55L196.88 470.05L192.77 470.05L192.77 319.55L188.67 319.55L188.67 470.26L184.57 470.37L184.57 319.55" id="f5uv5YkxxZ"></path><path d="M262.5 319.08L262.5 470.74L266.6 470.74L266.6 319.39L270.7 319.38L270.7 470.74L274.8 470.74L274.8 319.38L278.91 319.38L278.91 471.17L283.01 471.38L283.01 319.67L287.11 319.85L287.11 470.74L291.21 469.58L291.21 320.83L295.31 320.83L295.31 469.58L299.41 469.58L299.41 320.83L303.52 321.46L303.52 469.07L307.62 468.04L307.62 321.99L311.72 323.15L311.72 467.25L315.82 466.09L315.82 324.31L319.92 325.18L319.92 465.32L324.02 464.16L324.02 326.14L328.13 327.65L328.13 462.6L332.23 460.99L332.23 329.41L336.33 331.29L336.33 458.38L340.43 455.63L340.43 333.61L344.53 337.1L344.53 453.31L348.63 449.82L348.63 340.58L352.73 345.23L352.73 445.17L356.84 440.52L356.84 348.72L360.94 356.85L360.94 431.23L365.04 423.09L365.04 367.31" id="b1GCKuHZ8R"></path><path d="M237.89 319.67L237.89 470.92L241.99 470.74L241.99 319.67L246.09 319.67L246.09 470.16L250.2 470.16L250.2 319.67L254.3 319.67L254.3 470.38L258.4 470.49L258.4 319.67" id="eQlFfjI1k"></path><path d="M213.28 319.67L213.28 470.92L217.38 470.74L217.38 319.67L221.48 319.67L221.48 470.16L225.59 470.16L225.59 319.67L229.69 319.67L229.69 470.38L233.79 470.49L233.79 319.67" id="c37WL8mA8L"></path><path d="M209.18 471.21L209.18 319.55" id="a2pXNrDZJe"></path><path d="M279.7 129C342.57 129 374 155.03 374 207.09C374 207.09 374 207.09 374 207.09C374 259.15 342.57 285.18 279.7 285.18C196.06 285.18 149.59 285.18 140.3 285.18C77.43 285.18 46 259.15 46 207.09C46 207.09 46 207.09 46 207.09C46 155.03 77.43 129 140.3 129C223.94 129 270.41 129 279.7 129Z" id="aBxEe24n8"></path><clipPath id="clipg5o4vphXcG"><use xlink:href="#aBxEe24n8" opacity="1"></use></clipPath><path d="M155.86 130.97L155.86 282.62L151.76 282.62L151.76 131.28L147.66 131.27L147.66 282.62L143.55 282.62L143.55 131.26L139.45 131.26L139.45 283.06L135.35 283.27L135.35 131.55L131.25 131.73L131.25 282.62L127.15 281.46L127.15 132.71L123.05 132.71L123.05 281.46L118.95 281.46L118.95 132.71L114.84 133.35L114.84 280.96L110.74 279.93L110.74 133.87L106.64 135.04L106.64 279.14L102.54 277.97L102.54 136.2L98.44 137.06L98.44 277.21L94.34 276.04L94.34 138.02L90.23 139.54L90.23 274.49L86.13 272.88L86.13 141.29L82.03 143.17L82.03 270.26L77.93 267.52L77.93 145.49L73.83 148.98L73.83 265.19L69.73 261.71L69.73 152.47L65.63 157.12L65.63 257.06L61.52 252.41L61.52 160.6L57.42 168.74L57.42 243.11L53.32 234.98L53.32 179.2" id="gSuLCkwYT"></path><path d="M180.47 131.55L180.47 282.81L176.37 282.62L176.37 131.55L172.27 131.55L172.27 282.04L168.16 282.04L168.16 131.55L164.06 131.55L164.06 282.26L159.96 282.37L159.96 131.55" id="c13CyXwLKf"></path><path d="M205.08 131.55L205.08 282.81L200.98 282.62L200.98 131.55L196.88 131.55L196.88 282.04L192.77 282.04L192.77 131.55L188.67 131.55L188.67 282.26L184.57 282.37L184.57 131.55" id="dAyHxPxPC"></path><path d="M262.5 131.08L262.5 282.74L266.6 282.74L266.6 131.39L270.7 131.38L270.7 282.74L274.8 282.74L274.8 131.38L278.91 131.38L278.91 283.17L283.01 283.38L283.01 131.66L287.11 131.85L287.11 282.74L291.21 281.57L291.21 132.82L295.31 132.82L295.31 281.57L299.41 281.57L299.41 132.82L303.52 133.46L303.52 281.07L307.62 280.04L307.62 133.99L311.72 135.15L311.72 279.25L315.82 278.09L315.82 136.31L319.92 137.17L319.92 277.32L324.02 276.15L324.02 138.14L328.13 139.65L328.13 274.6L332.23 272.99L332.23 141.4L336.33 143.28L336.33 270.37L340.43 267.63L340.43 145.61L344.53 149.09L344.53 265.3L348.63 261.82L348.63 152.58L352.73 157.23L352.73 257.17L356.84 252.52L356.84 160.71L360.94 168.85L360.94 243.22L365.04 235.09L365.04 179.31" id="a1OFRDyjT8"></path><path d="M237.89 131.66L237.89 282.92L241.99 282.74L241.99 131.66L246.09 131.66L246.09 282.15L250.2 282.15L250.2 131.66L254.3 131.66L254.3 282.37L258.4 282.48L258.4 131.66" id="a88Nfcg3PM"></path><path d="M213.28 131.66L213.28 282.92L217.38 282.74L217.38 131.66L221.48 131.66L221.48 282.15L225.59 282.15L225.59 131.66L229.69 131.66L229.69 282.37L233.79 282.48L233.79 131.66" id="aRnkya5BA"></path><path d="M209.18 283.2L209.18 131.55" id="e61dpWDJk"></path></defs><g><g><g><use xlink:href="#a14l3A4Hqf" opacity="1" fill="#ffffff" fill-opacity="1"></use><g clip-path="url(#clipd1YcD9V9f5)"><use xlink:href="#a14l3A4Hqf" opacity="1" fill-opacity="0" stroke="#000000" stroke-width="12" stroke-opacity="1"></use></g></g><g><g clip-path="url(#cliph1OvwcLuyx)"><use xlink:href="#b42aBWfJ6W" opacity="1" fill-opacity="0" stroke="#485fd2" stroke-width="12" stroke-opacity="1"></use></g></g><g><g><g><g><use xlink:href="#l2wFGWETKf" opacity="1" fill-opacity="0" stroke="#485fd2" stroke-width="1" stroke-opacity="1"></use></g></g><g><g><use xlink:href="#bMeKb0gq0" opacity="1" fill-opacity="0" stroke="#485fd2" stroke-width="1" stroke-opacity="1"></use></g></g><g><g><use xlink:href="#f5uv5YkxxZ" opacity="1" fill-opacity="0" stroke="#485fd2" stroke-width="1" stroke-opacity="1"></use></g></g></g><g><g><g><use xlink:href="#b1GCKuHZ8R" opacity="1" fill-opacity="0" stroke="#485fd2" stroke-width="1" stroke-opacity="1"></use></g></g><g><g><use xlink:href="#eQlFfjI1k" opacity="1" fill-opacity="0" stroke="#485fd2" stroke-width="1" stroke-opacity="1"></use></g></g><g><g><use xlink:href="#c37WL8mA8L" opacity="1" fill-opacity="0" stroke="#485fd2" stroke-width="1" stroke-opacity="1"></use></g></g></g><g><g><use xlink:href="#a2pXNrDZJe" opacity="1" fill-opacity="0" stroke="#485fd2" stroke-width="1" stroke-opacity="1"></use></g></g></g><g><g clip-path="url(#clipg5o4vphXcG)"><use xlink:href="#aBxEe24n8" opacity="1" fill-opacity="0" stroke="#485fd2" stroke-width="12" stroke-opacity="1"></use></g></g><g><g><g><g><use xlink:href="#gSuLCkwYT" opacity="1" fill-opacity="0" stroke="#485fd2" stroke-width="1" stroke-opacity="1"></use></g></g><g><g><use xlink:href="#c13CyXwLKf" opacity="1" fill-opacity="0" stroke="#485fd2" stroke-width="1" stroke-opacity="1"></use></g></g><g><g><use xlink:href="#dAyHxPxPC" opacity="1" fill-opacity="0" stroke="#485fd2" stroke-width="1" stroke-opacity="1"></use></g></g></g><g><g><g><use xlink:href="#a1OFRDyjT8" opacity="1" fill-opacity="0" stroke="#485fd2" stroke-width="1" stroke-opacity="1"></use></g></g><g><g><use xlink:href="#a88Nfcg3PM" opacity="1" fill-opacity="0" stroke="#485fd2" stroke-width="1" stroke-opacity="1"></use></g></g><g><g><use xlink:href="#aRnkya5BA" opacity="1" fill-opacity="0" stroke="#485fd2" stroke-width="1" stroke-opacity="1"></use></g></g></g><g><g><use xlink:href="#e61dpWDJk" opacity="1" fill-opacity="0" stroke="#485fd2" stroke-width="1" stroke-opacity="1"></use></g></g></g></g></g></svg>