<?xml version="1.0" encoding="UTF-8" standalone="no"?>
<!DOCTYPE svg PUBLIC "-//W3C//DTD SVG 1.1//EN" "http://www.w3.org/Graphics/SVG/1.1/DTD/svg11.dtd">
<svg version="1.1" xmlns="http://www.w3.org/2000/svg" xmlns:xlink="http://www.w3.org/1999/xlink" preserveAspectRatio="xMidYMid meet" viewBox="0 0 420 595" width="420" height="595"><defs><path d="M0 0L420 0L420 595L0 595L0 0Z" id="g2fvjEQxR"></path><clipPath id="clipe1ngj2c35"><use xlink:href="#g2fvjEQxR" opacity="1"></use></clipPath><path d="M279.7 317C342.57 317 374 343.03 374 395.09C374 395.09 374 395.09 374 395.09C374 447.15 342.57 473.18 279.7 473.18C196.06 473.18 149.59 473.18 140.3 473.18C77.43 473.18 46 447.15 46 395.09C46 395.09 46 395.09 46 395.09C46 343.03 77.43 317 140.3 317C223.94 317 270.41 317 279.7 317Z" id="cCP6zV4Yo"></path><clipPath id="clipa4Ni6ON6Wu"><use xlink:href="#cCP6zV4Yo" opacity="1"></use></clipPath><path d="M279.7 129C342.57 129 374 155.03 374 207.09C374 207.09 374 207.09 374 207.09C374 259.15 342.57 285.18 279.7 285.18C196.06 285.18 149.59 285.18 140.3 285.18C77.43 285.18 46 259.15 46 207.09C46 207.09 46 207.09 46 207.09C46 155.03 77.43 129 140.3 129C223.94 129 270.41 129 279.7 129Z" id="c1PjMke2mR"></path><clipPath id="clipbeb8c6Yo"><use xlink:href="#c1PjMke2mR" opacity="1"></use></clipPath></defs><g><g><g><use xlink:href="#g2fvjEQxR" opacity="1" fill="#ffffff" fill-opacity="1"></use><g clip-path="url(#clipe1ngj2c35)"><use xlink:href="#g2fvjEQxR" opacity="1" fill-opacity="0" stroke="#000000" stroke-width="12" stroke-opacity="1"></use></g></g><g><use xlink:href="#cCP6zV4Yo" opacity="1" fill="#28d23a" fill-opacity="1"></use><g clip-path="url(#clipa4Ni6ON6Wu)"><use xlink:href="#cCP6zV4Yo" opacity="1" fill-opacity="0" stroke="#28d23a" stroke-width="12" stroke-opacity="1"></use></g></g><g><use xlink:href="#c1PjMke2mR" opacity="1" fill="#28d23a" fill-opacity="1"></use><g clip-path="url(#clipbeb8c6Yo)"><use xlink:href="#c1PjMke2mR" opacity="1" fill-opacity="0" stroke="#28d23a" stroke-width="12" stroke-opacity="1"></use></g></g></g></g></svg>