<?xml version="1.0" encoding="UTF-8" standalone="no"?>
<!DOCTYPE svg PUBLIC "-//W3C//DTD SVG 1.1//EN" "http://www.w3.org/Graphics/SVG/1.1/DTD/svg11.dtd">
<svg version="1.1" xmlns="http://www.w3.org/2000/svg" xmlns:xlink="http://www.w3.org/1999/xlink" preserveAspectRatio="xMidYMid meet" viewBox="0 0 420 595" width="420" height="595"><defs><path d="M0 0L420 0L420 595L0 595L0 0Z" id="ayXXmBRdM"></path><clipPath id="clipdvCZe52N"><use xlink:href="#ayXXmBRdM" opacity="1"></use></clipPath><path d="M279.7 392C342.57 392 374 418.03 374 470.09C374 470.09 374 470.09 374 470.09C374 522.15 342.57 548.18 279.7 548.18C196.06 548.18 149.59 548.18 140.3 548.18C77.43 548.18 46 522.15 46 470.09C46 470.09 46 470.09 46 470.09C46 418.03 77.43 392 140.3 392C223.94 392 270.41 392 279.7 392Z" id="d2cb0C1z5y"></path><clipPath id="cliph10GZ7b60P"><use xlink:href="#d2cb0C1z5y" opacity="1"></use></clipPath><path d="M279.7 219.41C342.57 219.41 374 245.44 374 297.5C374 297.5 374 297.5 374 297.5C374 349.56 342.57 375.59 279.7 375.59C196.06 375.59 149.59 375.59 140.3 375.59C77.43 375.59 46 349.56 46 297.5C46 297.5 46 297.5 46 297.5C46 245.44 77.43 219.41 140.3 219.41C223.94 219.41 270.41 219.41 279.7 219.41Z" id="a4vQqFU6Ze"></path><clipPath id="clipj47fIpiSJ3"><use xlink:href="#a4vQqFU6Ze" opacity="1"></use></clipPath><path d="M279.7 46C342.57 46 374 72.03 374 124.09C374 124.09 374 124.09 374 124.09C374 176.15 342.57 202.18 279.7 202.18C196.06 202.18 149.59 202.18 140.3 202.18C77.43 202.18 46 176.15 46 124.09C46 124.09 46 124.09 46 124.09C46 72.03 77.43 46 140.3 46C223.94 46 270.41 46 279.7 46Z" id="f7NTyx64Pt"></path><clipPath id="clipa159NrJ2BF"><use xlink:href="#f7NTyx64Pt" opacity="1"></use></clipPath></defs><g><g><g><use xlink:href="#ayXXmBRdM" opacity="1" fill="#ffffff" fill-opacity="1"></use><g clip-path="url(#clipdvCZe52N)"><use xlink:href="#ayXXmBRdM" opacity="1" fill-opacity="0" stroke="#000000" stroke-width="12" stroke-opacity="1"></use></g></g><g><use xlink:href="#d2cb0C1z5y" opacity="1" fill="#28d23a" fill-opacity="1"></use><g clip-path="url(#cliph10GZ7b60P)"><use xlink:href="#d2cb0C1z5y" opacity="1" fill-opacity="0" stroke="#28d23a" stroke-width="12" stroke-opacity="1"></use></g></g><g><use xlink:href="#a4vQqFU6Ze" opacity="1" fill="#28d23a" fill-opacity="1"></use><g clip-path="url(#clipj47fIpiSJ3)"><use xlink:href="#a4vQqFU6Ze" opacity="1" fill-opacity="0" stroke="#28d23a" stroke-width="12" stroke-opacity="1"></use></g></g><g><use xlink:href="#f7NTyx64Pt" opacity="1" fill="#28d23a" fill-opacity="1"></use><g clip-path="url(#clipa159NrJ2BF)"><use xlink:href="#f7NTyx64Pt" opacity="1" fill-opacity="0" stroke="#28d23a" stroke-width="12" stroke-opacity="1"></use></g></g></g></g></svg>