<?xml version="1.0" encoding="UTF-8" standalone="no"?>
<!DOCTYPE svg PUBLIC "-//W3C//DTD SVG 1.1//EN" "http://www.w3.org/Graphics/SVG/1.1/DTD/svg11.dtd">
<svg version="1.1" xmlns="http://www.w3.org/2000/svg" xmlns:xlink="http://www.w3.org/1999/xlink" preserveAspectRatio="xMidYMid meet" viewBox="0 0 420 595" width="420" height="595"><defs><path d="M0 0L420 0L420 595L0 595L0 0Z" id="b2jgOvRezK"></path><clipPath id="clipb1xfcup4I"><use xlink:href="#b2jgOvRezK" opacity="1"></use></clipPath><path d="M279.7 219.41C342.57 219.41 374 245.44 374 297.5C374 297.5 374 297.5 374 297.5C374 349.56 342.57 375.59 279.7 375.59C196.06 375.59 149.59 375.59 140.3 375.59C77.43 375.59 46 349.56 46 297.5C46 297.5 46 297.5 46 297.5C46 245.44 77.43 219.41 140.3 219.41C223.94 219.41 270.41 219.41 279.7 219.41Z" id="a12mHCvOtQ"></path><clipPath id="clipb3JlXqSkZl"><use xlink:href="#a12mHCvOtQ" opacity="1"></use></clipPath><path d="M155.86 221.38L155.86 373.04L151.76 373.04L151.76 221.69L147.66 221.68L147.66 373.04L143.55 373.04L143.55 221.68L139.45 221.68L139.45 373.47L135.35 373.68L135.35 221.96L131.25 222.15L131.25 373.04L127.15 371.88L127.15 223.13L123.05 223.13L123.05 371.88L118.95 371.88L118.95 223.13L114.84 223.76L114.84 371.37L110.74 370.34L110.74 224.29L106.64 225.45L106.64 369.55L102.54 368.39L102.54 226.61L98.44 227.47L98.44 367.62L94.34 366.45L94.34 228.44L90.23 229.95L90.23 364.9L86.13 363.29L86.13 231.7L82.03 233.58L82.03 360.68L77.93 357.93L77.93 235.91L73.83 239.39L73.83 355.61L69.73 352.12L69.73 242.88L65.63 247.53L65.63 347.47L61.52 342.82L61.52 251.02L57.42 259.15L57.42 333.53L53.32 325.39L53.32 269.61" id="d3SrxH2Hg8"></path><path d="M180.47 221.96L180.47 373.22L176.37 373.04L176.37 221.96L172.27 221.96L172.27 372.46L168.16 372.46L168.16 221.96L164.06 221.96L164.06 372.67L159.96 372.78L159.96 221.96" id="aMefqvv0V"></path><path d="M205.08 221.96L205.08 373.22L200.98 373.04L200.98 221.96L196.88 221.96L196.88 372.46L192.77 372.46L192.77 221.96L188.67 221.96L188.67 372.67L184.57 372.78L184.57 221.96" id="ao6seOjr4"></path><path d="M262.5 221.49L262.5 373.15L266.6 373.15L266.6 221.8L270.7 221.79L270.7 373.15L274.8 373.15L274.8 221.79L278.91 221.79L278.91 373.58L283.01 373.79L283.01 222.08L287.11 222.26L287.11 373.15L291.21 371.99L291.21 223.24L295.31 223.24L295.31 371.99L299.41 371.99L299.41 223.24L303.52 223.87L303.52 371.48L307.62 370.45L307.62 224.4L311.72 225.56L311.72 369.66L315.82 368.5L315.82 226.72L319.92 227.59L319.92 367.73L324.02 366.57L324.02 228.55L328.13 230.06L328.13 365.01L332.23 363.4L332.23 231.82L336.33 233.7L336.33 360.79L340.43 358.04L340.43 236.02L344.53 239.51L344.53 355.72L348.63 352.23L348.63 242.99L352.73 247.64L352.73 347.58L356.84 342.93L356.84 251.13L360.94 259.26L360.94 333.64L365.04 325.5L365.04 269.72" id="b76deDwblX"></path><path d="M237.89 222.08L237.89 373.33L241.99 373.15L241.99 222.08L246.09 222.08L246.09 372.57L250.2 372.57L250.2 222.08L254.3 222.08L254.3 372.79L258.4 372.9L258.4 222.08" id="b33wBMD61"></path><path d="M213.28 222.08L213.28 373.33L217.38 373.15L217.38 222.08L221.48 222.08L221.48 372.57L225.59 372.57L225.59 222.08L229.69 222.08L229.69 372.79L233.79 372.9L233.79 222.08" id="c1IqS8lojO"></path><path d="M209.18 373.62L209.18 221.96" id="crYrMtCGr"></path></defs><g><g><g><use xlink:href="#b2jgOvRezK" opacity="1" fill="#ffffff" fill-opacity="1"></use><g clip-path="url(#clipb1xfcup4I)"><use xlink:href="#b2jgOvRezK" opacity="1" fill-opacity="0" stroke="#000000" stroke-width="12" stroke-opacity="1"></use></g></g><g><g clip-path="url(#clipb3JlXqSkZl)"><use xlink:href="#a12mHCvOtQ" opacity="1" fill-opacity="0" stroke="#ff0000" stroke-width="12" stroke-opacity="1"></use></g></g><g><g><g><g><use xlink:href="#d3SrxH2Hg8" opacity="1" fill-opacity="0" stroke="#ff0000" stroke-width="1" stroke-opacity="1"></use></g></g><g><g><use xlink:href="#aMefqvv0V" opacity="1" fill-opacity="0" stroke="#ff0000" stroke-width="1" stroke-opacity="1"></use></g></g><g><g><use xlink:href="#ao6seOjr4" opacity="1" fill-opacity="0" stroke="#ff0000" stroke-width="1" stroke-opacity="1"></use></g></g></g><g><g><g><use xlink:href="#b76deDwblX" opacity="1" fill-opacity="0" stroke="#ff0000" stroke-width="1" stroke-opacity="1"></use></g></g><g><g><use xlink:href="#b33wBMD61" opacity="1" fill-opacity="0" stroke="#ff0000" stroke-width="1" stroke-opacity="1"></use></g></g><g><g><use xlink:href="#c1IqS8lojO" opacity="1" fill-opacity="0" stroke="#ff0000" stroke-width="1" stroke-opacity="1"></use></g></g></g><g><g><use xlink:href="#crYrMtCGr" opacity="1" fill-opacity="0" stroke="#ff0000" stroke-width="1" stroke-opacity="1"></use></g></g></g></g></g></svg>