<?xml version="1.0" encoding="UTF-8" standalone="no"?>
<!DOCTYPE svg PUBLIC "-//W3C//DTD SVG 1.1//EN" "http://www.w3.org/Graphics/SVG/1.1/DTD/svg11.dtd">
<svg version="1.1" xmlns="http://www.w3.org/2000/svg" xmlns:xlink="http://www.w3.org/1999/xlink" preserveAspectRatio="xMidYMid meet" viewBox="0 0 420 595" width="420" height="595"><defs><path d="M0 0L420 0L420 595L0 595L0 0Z" id="czQ2AbB7E"></path><clipPath id="clipc8oWfNndWY"><use xlink:href="#czQ2AbB7E" opacity="1"></use></clipPath><path d="M210 317L374.06 391.37L210 465.75" id="b1lS4JtPPb"></path><clipPath id="clipb2qKuTjODY"><use xlink:href="#b1lS4JtPPb" opacity="1"></use></clipPath><path d="M210 317L45.94 391.37L210 465.75" id="b1at1XA73E"></path><clipPath id="clipa2wJaxgIht"><use xlink:href="#b1at1XA73E" opacity="1"></use></clipPath><path d="M123.87 358.84L123.87 423.55L119.77 422.12L119.77 360.38L115.66 361.55L115.66 419.59L111.56 418.1L111.56 364.65L107.46 366.97L107.46 416.78L103.36 414.62L103.36 369.29L99.26 370.46L99.26 412.8L95.16 410.82L95.16 372.18L91.05 374.11L91.05 408.81L86.95 406.72L86.95 375.85L82.99 377.43L82.85 405.32L78.75 403L78.75 379.75L74.65 380.92L74.65 401.83L70.55 399.51L70.55 383.24L66.45 385.56L66.45 397.19" id="a2UGNsJ1S"></path><path d="M205.9 321.65L205.9 460.89L201.8 458.78L201.8 323.97L197.7 325.13L197.7 457.42L193.59 455.29L193.59 327.22L189.49 329.78L189.49 452.97L185.39 451.21L185.39 331.2L181.29 333.27L181.29 449.8L177.19 447.16L177.19 335.59L173.09 336.76L173.09 445.19L168.98 442.51L168.98 339.08L164.88 340.54L164.88 441.57L160.78 439.59L160.78 341.95L156.68 344.54L156.68 437.86L152.58 436.08L152.58 346.05L148.48 347.74L148.48 434.37L144.38 432.31L144.38 349.38L140.27 351.86L140.27 430.71L136.17 428.56L136.17 353.03L132.07 355.35L132.07 427.4L127.97 425.08L127.97 357.67" id="c2olsdcb4"></path><path d="M296.13 358.84L296.13 423.55L300.23 422.12L300.23 360.38L304.34 361.55L304.34 419.59L308.44 418.1L308.44 364.65L312.54 366.97L312.54 416.78L316.64 414.62L316.64 369.29L320.74 370.46L320.74 412.8L324.84 410.82L324.84 372.18L328.95 374.11L328.95 408.81L333.05 406.72L333.05 375.85L337.01 377.43L337.15 405.32L341.25 403L341.25 379.75L345.35 380.92L345.35 401.83L349.45 399.51L349.45 383.24L353.55 385.56L353.55 397.19" id="e2hKZGxmqh"></path><path d="M214.1 321.65L214.1 460.89L218.2 458.78L218.2 323.97L222.3 325.13L222.3 457.42L226.41 455.29L226.41 327.22L230.51 329.78L230.51 452.97L234.61 451.21L234.61 331.2L238.71 333.27L238.71 449.8L242.81 447.16L242.81 335.59L246.91 336.76L246.91 445.19L251.02 442.51L251.02 339.08L255.12 340.54L255.12 441.57L259.22 439.59L259.22 341.95L263.32 344.54L263.32 437.86L267.42 436.08L267.42 346.05L271.52 347.74L271.52 434.37L275.63 432.31L275.63 349.38L279.73 351.86L279.73 430.71L283.83 428.56L283.83 353.03L287.93 355.35L287.93 427.4L292.03 425.08L292.03 357.67" id="c4kCRuVpu"></path><path d="M210 462.26L210 320.49" id="b1cgCfdSu3"></path><path d="M210 129L374.06 203.37L210 277.75" id="a2joz2ZUBv"></path><clipPath id="clipb1CMVBCR4x"><use xlink:href="#a2joz2ZUBv" opacity="1"></use></clipPath><path d="M210 129L45.94 203.37L210 277.75" id="a6qzfaRdp2"></path><clipPath id="clipb1jYYHCde"><use xlink:href="#a6qzfaRdp2" opacity="1"></use></clipPath><path d="M123.87 170.83L123.87 235.55L119.77 234.12L119.77 172.38L115.66 173.55L115.66 231.59L111.56 230.1L111.56 176.65L107.46 178.97L107.46 228.78L103.36 226.62L103.36 181.29L99.26 182.46L99.26 224.8L95.16 222.81L95.16 184.18L91.05 186.11L91.05 220.81L86.95 218.72L86.95 187.85L82.99 189.43L82.85 217.32L78.75 214.99L78.75 191.75L74.65 192.91L74.65 213.83L70.55 211.51L70.55 195.24L66.45 197.56L66.45 209.18" id="avWorEa3Y"></path><path d="M205.9 133.65L205.9 272.89L201.8 270.78L201.8 135.97L197.7 137.13L197.7 269.42L193.59 267.29L193.59 139.22L189.49 141.78L189.49 264.97L185.39 263.21L185.39 143.2L181.29 145.27L181.29 261.8L177.19 259.15L177.19 147.59L173.09 148.75L173.09 257.19L168.98 254.51L168.98 151.08L164.88 152.54L164.88 253.57L160.78 251.59L160.78 153.95L156.68 156.54L156.68 249.86L152.58 248.08L152.58 158.05L148.48 159.74L148.48 246.37L144.38 244.31L144.38 161.38L140.27 163.86L140.27 242.71L136.17 240.56L136.17 165.02L132.07 167.35L132.07 239.4L127.97 237.07L127.97 169.67" id="a1w1M1xKzT"></path><path d="M296.13 170.83L296.13 235.55L300.23 234.12L300.23 172.38L304.34 173.55L304.34 231.59L308.44 230.1L308.44 176.65L312.54 178.97L312.54 228.78L316.64 226.62L316.64 181.29L320.74 182.46L320.74 224.8L324.84 222.81L324.84 184.18L328.95 186.11L328.95 220.81L333.05 218.72L333.05 187.85L337.01 189.43L337.15 217.32L341.25 214.99L341.25 191.75L345.35 192.91L345.35 213.83L349.45 211.51L349.45 195.24L353.55 197.56L353.55 209.18" id="a6v9KA3KLi"></path><path d="M214.1 133.65L214.1 272.89L218.2 270.78L218.2 135.97L222.3 137.13L222.3 269.42L226.41 267.29L226.41 139.22L230.51 141.78L230.51 264.97L234.61 263.21L234.61 143.2L238.71 145.27L238.71 261.8L242.81 259.15L242.81 147.59L246.91 148.75L246.91 257.19L251.02 254.51L251.02 151.08L255.12 152.54L255.12 253.57L259.22 251.59L259.22 153.95L263.32 156.54L263.32 249.86L267.42 248.08L267.42 158.05L271.52 159.74L271.52 246.37L275.63 244.31L275.63 161.38L279.73 163.86L279.73 242.71L283.83 240.56L283.83 165.02L287.93 167.35L287.93 239.4L292.03 237.07L292.03 169.67" id="aioN0K7"></path><path d="M210 274.26L210 132.49" id="b27l7RGOav"></path></defs><g><g><g><use xlink:href="#czQ2AbB7E" opacity="1" fill="#ffffff" fill-opacity="1"></use><g clip-path="url(#clipc8oWfNndWY)"><use xlink:href="#czQ2AbB7E" opacity="1" fill-opacity="0" stroke="#000000" stroke-width="12" stroke-opacity="1"></use></g></g><g><g><g clip-path="url(#clipb2qKuTjODY)"><use xlink:href="#b1lS4JtPPb" opacity="1" fill-opacity="0" stroke="#485fd2" stroke-width="12" stroke-opacity="1"></use></g></g><g><g clip-path="url(#clipa2wJaxgIht)"><use xlink:href="#b1at1XA73E" opacity="1" fill-opacity="0" stroke="#485fd2" stroke-width="12" stroke-opacity="1"></use></g></g></g><g><g><g><g><use xlink:href="#a2UGNsJ1S" opacity="1" fill-opacity="0" stroke="#485fd2" stroke-width="1" stroke-opacity="1"></use></g></g><g><g><use xlink:href="#c2olsdcb4" opacity="1" fill-opacity="0" stroke="#485fd2" stroke-width="1" stroke-opacity="1"></use></g></g></g><g><g><g><use xlink:href="#e2hKZGxmqh" opacity="1" fill-opacity="0" stroke="#485fd2" stroke-width="1" stroke-opacity="1"></use></g></g><g><g><use xlink:href="#c4kCRuVpu" opacity="1" fill-opacity="0" stroke="#485fd2" stroke-width="1" stroke-opacity="1"></use></g></g></g><g><g><use xlink:href="#b1cgCfdSu3" opacity="1" fill-opacity="0" stroke="#485fd2" stroke-width="1" stroke-opacity="1"></use></g></g></g><g><g><g clip-path="url(#clipb1CMVBCR4x)"><use xlink:href="#a2joz2ZUBv" opacity="1" fill-opacity="0" stroke="#485fd2" stroke-width="12" stroke-opacity="1"></use></g></g><g><g clip-path="url(#clipb1jYYHCde)"><use xlink:href="#a6qzfaRdp2" opacity="1" fill-opacity="0" stroke="#485fd2" stroke-width="12" stroke-opacity="1"></use></g></g></g><g><g><g><g><use xlink:href="#avWorEa3Y" opacity="1" fill-opacity="0" stroke="#485fd2" stroke-width="1" stroke-opacity="1"></use></g></g><g><g><use xlink:href="#a1w1M1xKzT" opacity="1" fill-opacity="0" stroke="#485fd2" stroke-width="1" stroke-opacity="1"></use></g></g></g><g><g><g><use xlink:href="#a6v9KA3KLi" opacity="1" fill-opacity="0" stroke="#485fd2" stroke-width="1" stroke-opacity="1"></use></g></g><g><g><use xlink:href="#aioN0K7" opacity="1" fill-opacity="0" stroke="#485fd2" stroke-width="1" stroke-opacity="1"></use></g></g></g><g><g><use xlink:href="#b27l7RGOav" opacity="1" fill-opacity="0" stroke="#485fd2" stroke-width="1" stroke-opacity="1"></use></g></g></g></g></g></svg>