<?xml version="1.0" encoding="UTF-8" standalone="no"?>
<!DOCTYPE svg PUBLIC "-//W3C//DTD SVG 1.1//EN" "http://www.w3.org/Graphics/SVG/1.1/DTD/svg11.dtd">
<svg version="1.1" xmlns="http://www.w3.org/2000/svg" xmlns:xlink="http://www.w3.org/1999/xlink" preserveAspectRatio="xMidYMid meet" viewBox="0 0 420 595" width="420" height="595"><defs><path d="M0 0L420 0L420 595L0 595L0 0Z" id="bU3KtZE2m"></path><clipPath id="clipb1aVu52hy3"><use xlink:href="#bU3KtZE2m" opacity="1"></use></clipPath><path d="M210 223.13L374.06 297.5L210 371.88" id="c2EDoiUInb"></path><clipPath id="clipb2du7sUTtt"><use xlink:href="#c2EDoiUInb" opacity="1"></use></clipPath><path d="M210 223.13L45.94 297.5L210 371.88" id="dKVLRQUsI"></path><clipPath id="clipeMbtNhgUH"><use xlink:href="#dKVLRQUsI" opacity="1"></use></clipPath><path d="M123.87 264.96L123.87 329.67L119.77 328.25L119.77 266.51L115.66 267.68L115.66 325.72L111.56 324.23L111.56 270.77L107.46 273.1L107.46 322.91L103.36 320.74L103.36 275.42L99.26 276.58L99.26 318.93L95.16 316.94L95.16 278.3L91.05 280.23L91.05 314.93L86.95 312.84L86.95 281.98L82.99 283.55L82.85 311.45L78.75 309.12L78.75 285.88L74.65 287.04L74.65 307.96L70.55 305.63L70.55 289.37L66.45 291.69L66.45 303.31" id="aOUQfpbtf"></path><path d="M205.9 227.77L205.9 367.02L201.8 364.9L201.8 230.1L197.7 231.26L197.7 363.54L193.59 361.42L193.59 233.34L189.49 235.91L189.49 359.09L185.39 357.34L185.39 237.33L181.29 239.39L181.29 355.93L177.19 353.28L177.19 241.72L173.09 242.88L173.09 351.32L168.98 348.63L168.98 245.21L164.88 246.67L164.88 347.7L160.78 345.71L160.78 248.08L156.68 250.67L156.68 343.98L152.58 342.21L152.58 252.18L148.48 253.87L148.48 340.5L144.38 338.43L144.38 255.51L140.27 257.99L140.27 336.83L136.17 334.69L136.17 259.15L132.07 261.47L132.07 333.53L127.97 331.2L127.97 263.8" id="bP8gJLlDy"></path><path d="M296.13 264.96L296.13 329.67L300.23 328.25L300.23 266.51L304.34 267.68L304.34 325.72L308.44 324.23L308.44 270.77L312.54 273.1L312.54 322.91L316.64 320.74L316.64 275.42L320.74 276.58L320.74 318.93L324.84 316.94L324.84 278.3L328.95 280.23L328.95 314.93L333.05 312.84L333.05 281.98L337.01 283.55L337.15 311.45L341.25 309.12L341.25 285.88L345.35 287.04L345.35 307.96L349.45 305.63L349.45 289.37L353.55 291.69L353.55 303.31" id="b8EOupUSM"></path><path d="M214.1 227.77L214.1 367.02L218.2 364.9L218.2 230.1L222.3 231.26L222.3 363.54L226.41 361.42L226.41 233.34L230.51 235.91L230.51 359.09L234.61 357.34L234.61 237.33L238.71 239.39L238.71 355.93L242.81 353.28L242.81 241.72L246.91 242.88L246.91 351.32L251.02 348.63L251.02 245.21L255.12 246.67L255.12 347.7L259.22 345.71L259.22 248.08L263.32 250.67L263.32 343.98L267.42 342.21L267.42 252.18L271.52 253.87L271.52 340.5L275.63 338.43L275.63 255.51L279.73 257.99L279.73 336.83L283.83 334.69L283.83 259.15L287.93 261.47L287.93 333.53L292.03 331.2L292.03 263.8" id="jedvWKLRs"></path><path d="M210 368.39L210 226.61" id="b2e9DxtBoa"></path></defs><g><g><g><use xlink:href="#bU3KtZE2m" opacity="1" fill="#ffffff" fill-opacity="1"></use><g clip-path="url(#clipb1aVu52hy3)"><use xlink:href="#bU3KtZE2m" opacity="1" fill-opacity="0" stroke="#000000" stroke-width="12" stroke-opacity="1"></use></g></g><g><g><g clip-path="url(#clipb2du7sUTtt)"><use xlink:href="#c2EDoiUInb" opacity="1" fill-opacity="0" stroke="#28d23a" stroke-width="12" stroke-opacity="1"></use></g></g><g><g clip-path="url(#clipeMbtNhgUH)"><use xlink:href="#dKVLRQUsI" opacity="1" fill-opacity="0" stroke="#28d23a" stroke-width="12" stroke-opacity="1"></use></g></g></g><g><g><g><g><use xlink:href="#aOUQfpbtf" opacity="1" fill-opacity="0" stroke="#28d23a" stroke-width="1" stroke-opacity="1"></use></g></g><g><g><use xlink:href="#bP8gJLlDy" opacity="1" fill-opacity="0" stroke="#28d23a" stroke-width="1" stroke-opacity="1"></use></g></g></g><g><g><g><use xlink:href="#b8EOupUSM" opacity="1" fill-opacity="0" stroke="#28d23a" stroke-width="1" stroke-opacity="1"></use></g></g><g><g><use xlink:href="#jedvWKLRs" opacity="1" fill-opacity="0" stroke="#28d23a" stroke-width="1" stroke-opacity="1"></use></g></g></g><g><g><use xlink:href="#b2e9DxtBoa" opacity="1" fill-opacity="0" stroke="#28d23a" stroke-width="1" stroke-opacity="1"></use></g></g></g></g></g></svg>