<?xml version="1.0" encoding="UTF-8" standalone="no"?>
<!DOCTYPE svg PUBLIC "-//W3C//DTD SVG 1.1//EN" "http://www.w3.org/Graphics/SVG/1.1/DTD/svg11.dtd">
<svg version="1.1" xmlns="http://www.w3.org/2000/svg" xmlns:xlink="http://www.w3.org/1999/xlink" preserveAspectRatio="xMidYMid meet" viewBox="0 0 420 595" width="420" height="595"><defs><path d="M0 0L420 0L420 595L0 595L0 0Z" id="cUkZk8tCX"></path><clipPath id="clipb1EcgJufmo"><use xlink:href="#cUkZk8tCX" opacity="1"></use></clipPath><path d="M210 387L374.06 461.38L210 535.75" id="c15j6dGJop"></path><clipPath id="clipjKYudG8XG"><use xlink:href="#c15j6dGJop" opacity="1"></use></clipPath><path d="M210 387L45.94 461.38L210 535.75" id="a43ib1Cjpd"></path><clipPath id="clipabR199lMH"><use xlink:href="#a43ib1Cjpd" opacity="1"></use></clipPath><path d="M123.87 428.84L123.87 493.55L119.77 492.13L119.77 430.39L115.66 431.55L115.66 489.6L111.56 488.11L111.56 434.65L107.46 436.97L107.46 486.79L103.36 484.62L103.36 439.3L99.26 440.46L99.26 482.81L95.16 480.82L95.16 442.18L91.05 444.11L91.05 478.81L86.95 476.72L86.95 445.86L82.99 447.43L82.85 475.32L78.75 473L78.75 449.76L74.65 450.92L74.65 471.84L70.55 469.51L70.55 453.24L66.45 455.57L66.45 467.19" id="byUF9wmmA"></path><path d="M205.9 391.65L205.9 530.9L201.8 528.78L201.8 393.98L197.7 395.14L197.7 527.42L193.59 525.29L193.59 397.22L189.49 399.79L189.49 522.97L185.39 521.22L185.39 401.21L181.29 403.27L181.29 519.81L177.19 517.16L177.19 405.6L173.09 406.76L173.09 515.19L168.98 512.51L168.98 409.08L164.88 410.54L164.88 511.57L160.78 509.59L160.78 411.95L156.68 414.55L156.68 507.86L152.58 506.09L152.58 416.06L148.48 417.75L148.48 504.38L144.38 502.31L144.38 419.39L140.27 421.87L140.27 500.71L136.17 498.57L136.17 423.03L132.07 425.35L132.07 497.4L127.97 495.08L127.97 427.68" id="a41ZJOHT"></path><path d="M296.13 428.84L296.13 493.55L300.23 492.13L300.23 430.39L304.34 431.55L304.34 489.6L308.44 488.11L308.44 434.65L312.54 436.97L312.54 486.79L316.64 484.62L316.64 439.3L320.74 440.46L320.74 482.81L324.84 480.82L324.84 442.18L328.95 444.11L328.95 478.81L333.05 476.72L333.05 445.86L337.01 447.43L337.15 475.32L341.25 473L341.25 449.76L345.35 450.92L345.35 471.84L349.45 469.51L349.45 453.24L353.55 455.57L353.55 467.19" id="aCNvpQnLt"></path><path d="M214.1 391.65L214.1 530.9L218.2 528.78L218.2 393.98L222.3 395.14L222.3 527.42L226.41 525.29L226.41 397.22L230.51 399.79L230.51 522.97L234.61 521.22L234.61 401.21L238.71 403.27L238.71 519.81L242.81 517.16L242.81 405.6L246.91 406.76L246.91 515.19L251.02 512.51L251.02 409.08L255.12 410.54L255.12 511.57L259.22 509.59L259.22 411.95L263.32 414.55L263.32 507.86L267.42 506.09L267.42 416.06L271.52 417.75L271.52 504.38L275.63 502.31L275.63 419.39L279.73 421.87L279.73 500.71L283.83 498.57L283.83 423.03L287.93 425.35L287.93 497.4L292.03 495.08L292.03 427.68" id="b1vTNdbk8h"></path><path d="M210 532.27L210 390.49" id="aVFD4pInS"></path><path d="M210 223.13L374.06 297.5L210 371.88" id="kVVvYPBfD"></path><clipPath id="clipa2BEjdfYb6"><use xlink:href="#kVVvYPBfD" opacity="1"></use></clipPath><path d="M210 223.13L45.94 297.5L210 371.88" id="a1wo7fCRFu"></path><clipPath id="clipa1KqhrUmoj"><use xlink:href="#a1wo7fCRFu" opacity="1"></use></clipPath><path d="M123.87 264.96L123.87 329.67L119.77 328.25L119.77 266.51L115.66 267.68L115.66 325.72L111.56 324.23L111.56 270.77L107.46 273.1L107.46 322.91L103.36 320.74L103.36 275.42L99.26 276.58L99.26 318.93L95.16 316.94L95.16 278.3L91.05 280.23L91.05 314.93L86.95 312.84L86.95 281.98L82.99 283.55L82.85 311.45L78.75 309.12L78.75 285.88L74.65 287.04L74.65 307.96L70.55 305.63L70.55 289.37L66.45 291.69L66.45 303.31" id="bNWoywY38"></path><path d="M205.9 227.77L205.9 367.02L201.8 364.9L201.8 230.1L197.7 231.26L197.7 363.54L193.59 361.42L193.59 233.34L189.49 235.91L189.49 359.09L185.39 357.34L185.39 237.33L181.29 239.39L181.29 355.93L177.19 353.28L177.19 241.72L173.09 242.88L173.09 351.32L168.98 348.63L168.98 245.21L164.88 246.67L164.88 347.7L160.78 345.71L160.78 248.08L156.68 250.67L156.68 343.98L152.58 342.21L152.58 252.18L148.48 253.87L148.48 340.5L144.38 338.43L144.38 255.51L140.27 257.99L140.27 336.83L136.17 334.69L136.17 259.15L132.07 261.47L132.07 333.53L127.97 331.2L127.97 263.8" id="iJ3r3YnJE"></path><path d="M296.13 264.96L296.13 329.67L300.23 328.25L300.23 266.51L304.34 267.68L304.34 325.72L308.44 324.23L308.44 270.77L312.54 273.1L312.54 322.91L316.64 320.74L316.64 275.42L320.74 276.58L320.74 318.93L324.84 316.94L324.84 278.3L328.95 280.23L328.95 314.93L333.05 312.84L333.05 281.98L337.01 283.55L337.15 311.45L341.25 309.12L341.25 285.88L345.35 287.04L345.35 307.96L349.45 305.63L349.45 289.37L353.55 291.69L353.55 303.31" id="a1SvRuvPFx"></path><path d="M214.1 227.77L214.1 367.02L218.2 364.9L218.2 230.1L222.3 231.26L222.3 363.54L226.41 361.42L226.41 233.34L230.51 235.91L230.51 359.09L234.61 357.34L234.61 237.33L238.71 239.39L238.71 355.93L242.81 353.28L242.81 241.72L246.91 242.88L246.91 351.32L251.02 348.63L251.02 245.21L255.12 246.67L255.12 347.7L259.22 345.71L259.22 248.08L263.32 250.67L263.32 343.98L267.42 342.21L267.42 252.18L271.52 253.87L271.52 340.5L275.63 338.43L275.63 255.51L279.73 257.99L279.73 336.83L283.83 334.69L283.83 259.15L287.93 261.47L287.93 333.53L292.03 331.2L292.03 263.8" id="a9iVOi1JHX"></path><path d="M210 368.39L210 226.61" id="a3FFHPcYjj"></path><path d="M210 59L374.06 133.37L210 207.75" id="e1kAiHzfSp"></path><clipPath id="clipbdPq7lznX"><use xlink:href="#e1kAiHzfSp" opacity="1"></use></clipPath><path d="M210 59L45.94 133.37L210 207.75" id="a1z0oiOMgq"></path><clipPath id="clipb1e1kxTBLV"><use xlink:href="#a1z0oiOMgq" opacity="1"></use></clipPath><path d="M123.87 100.83L123.87 165.55L119.77 164.12L119.77 102.38L115.66 103.55L115.66 161.59L111.56 160.1L111.56 106.64L107.46 108.97L107.46 158.78L103.36 156.61L103.36 111.29L99.26 112.45L99.26 154.8L95.16 152.81L95.16 114.18L91.05 116.1L91.05 150.8L86.95 148.71L86.95 117.85L82.99 119.43L82.85 147.32L78.75 144.99L78.75 121.75L74.65 122.91L74.65 143.83L70.55 141.51L70.55 125.24L66.45 127.56L66.45 139.18" id="aFWincNcO"></path><path d="M205.9 63.65L205.9 202.89L201.8 200.78L201.8 65.97L197.7 67.13L197.7 199.41L193.59 197.29L193.59 69.22L189.49 71.78L189.49 194.96L185.39 193.21L185.39 73.2L181.29 75.27L181.29 191.8L177.19 189.15L177.19 77.59L173.09 78.75L173.09 187.19L168.98 184.51L168.98 81.08L164.88 82.54L164.88 183.57L160.78 181.59L160.78 83.95L156.68 86.54L156.68 179.86L152.58 178.08L152.58 88.05L148.48 89.74L148.48 176.37L144.38 174.31L144.38 91.38L140.27 93.86L140.27 172.71L136.17 170.56L136.17 95.02L132.07 97.35L132.07 169.4L127.97 167.07L127.97 99.67" id="c32027vXHI"></path><path d="M296.13 100.83L296.13 165.55L300.23 164.12L300.23 102.38L304.34 103.55L304.34 161.59L308.44 160.1L308.44 106.64L312.54 108.97L312.54 158.78L316.64 156.61L316.64 111.29L320.74 112.45L320.74 154.8L324.84 152.81L324.84 114.18L328.95 116.1L328.95 150.8L333.05 148.71L333.05 117.85L337.01 119.43L337.15 147.32L341.25 144.99L341.25 121.75L345.35 122.91L345.35 143.83L349.45 141.51L349.45 125.24L353.55 127.56L353.55 139.18" id="f1udpselkV"></path><path d="M214.1 63.65L214.1 202.89L218.2 200.78L218.2 65.97L222.3 67.13L222.3 199.41L226.41 197.29L226.41 69.22L230.51 71.78L230.51 194.96L234.61 193.21L234.61 73.2L238.71 75.27L238.71 191.8L242.81 189.15L242.81 77.59L246.91 78.75L246.91 187.19L251.02 184.51L251.02 81.08L255.12 82.54L255.12 183.57L259.22 181.59L259.22 83.95L263.32 86.54L263.32 179.86L267.42 178.08L267.42 88.05L271.52 89.74L271.52 176.37L275.63 174.31L275.63 91.38L279.73 93.86L279.73 172.71L283.83 170.56L283.83 95.02L287.93 97.35L287.93 169.4L292.03 167.07L292.03 99.67" id="a29zeM2Nv8"></path><path d="M210 204.26L210 62.48" id="b9a9vwcKuL"></path></defs><g><g><g><use xlink:href="#cUkZk8tCX" opacity="1" fill="#ffffff" fill-opacity="1"></use><g clip-path="url(#clipb1EcgJufmo)"><use xlink:href="#cUkZk8tCX" opacity="1" fill-opacity="0" stroke="#000000" stroke-width="12" stroke-opacity="1"></use></g></g><g><g><g clip-path="url(#clipjKYudG8XG)"><use xlink:href="#c15j6dGJop" opacity="1" fill-opacity="0" stroke="#485fd2" stroke-width="12" stroke-opacity="1"></use></g></g><g><g clip-path="url(#clipabR199lMH)"><use xlink:href="#a43ib1Cjpd" opacity="1" fill-opacity="0" stroke="#485fd2" stroke-width="12" stroke-opacity="1"></use></g></g></g><g><g><g><g><use xlink:href="#byUF9wmmA" opacity="1" fill-opacity="0" stroke="#485fd2" stroke-width="1" stroke-opacity="1"></use></g></g><g><g><use xlink:href="#a41ZJOHT" opacity="1" fill-opacity="0" stroke="#485fd2" stroke-width="1" stroke-opacity="1"></use></g></g></g><g><g><g><use xlink:href="#aCNvpQnLt" opacity="1" fill-opacity="0" stroke="#485fd2" stroke-width="1" stroke-opacity="1"></use></g></g><g><g><use xlink:href="#b1vTNdbk8h" opacity="1" fill-opacity="0" stroke="#485fd2" stroke-width="1" stroke-opacity="1"></use></g></g></g><g><g><use xlink:href="#aVFD4pInS" opacity="1" fill-opacity="0" stroke="#485fd2" stroke-width="1" stroke-opacity="1"></use></g></g></g><g><g><g clip-path="url(#clipa2BEjdfYb6)"><use xlink:href="#kVVvYPBfD" opacity="1" fill-opacity="0" stroke="#485fd2" stroke-width="12" stroke-opacity="1"></use></g></g><g><g clip-path="url(#clipa1KqhrUmoj)"><use xlink:href="#a1wo7fCRFu" opacity="1" fill-opacity="0" stroke="#485fd2" stroke-width="12" stroke-opacity="1"></use></g></g></g><g><g><g><g><use xlink:href="#bNWoywY38" opacity="1" fill-opacity="0" stroke="#485fd2" stroke-width="1" stroke-opacity="1"></use></g></g><g><g><use xlink:href="#iJ3r3YnJE" opacity="1" fill-opacity="0" stroke="#485fd2" stroke-width="1" stroke-opacity="1"></use></g></g></g><g><g><g><use xlink:href="#a1SvRuvPFx" opacity="1" fill-opacity="0" stroke="#485fd2" stroke-width="1" stroke-opacity="1"></use></g></g><g><g><use xlink:href="#a9iVOi1JHX" opacity="1" fill-opacity="0" stroke="#485fd2" stroke-width="1" stroke-opacity="1"></use></g></g></g><g><g><use xlink:href="#a3FFHPcYjj" opacity="1" fill-opacity="0" stroke="#485fd2" stroke-width="1" stroke-opacity="1"></use></g></g></g><g><g><g clip-path="url(#clipbdPq7lznX)"><use xlink:href="#e1kAiHzfSp" opacity="1" fill-opacity="0" stroke="#485fd2" stroke-width="12" stroke-opacity="1"></use></g></g><g><g clip-path="url(#clipb1e1kxTBLV)"><use xlink:href="#a1z0oiOMgq" opacity="1" fill-opacity="0" stroke="#485fd2" stroke-width="12" stroke-opacity="1"></use></g></g></g><g><g><g><g><use xlink:href="#aFWincNcO" opacity="1" fill-opacity="0" stroke="#485fd2" stroke-width="1" stroke-opacity="1"></use></g></g><g><g><use xlink:href="#c32027vXHI" opacity="1" fill-opacity="0" stroke="#485fd2" stroke-width="1" stroke-opacity="1"></use></g></g></g><g><g><g><use xlink:href="#f1udpselkV" opacity="1" fill-opacity="0" stroke="#485fd2" stroke-width="1" stroke-opacity="1"></use></g></g><g><g><use xlink:href="#a29zeM2Nv8" opacity="1" fill-opacity="0" stroke="#485fd2" stroke-width="1" stroke-opacity="1"></use></g></g></g><g><g><use xlink:href="#b9a9vwcKuL" opacity="1" fill-opacity="0" stroke="#485fd2" stroke-width="1" stroke-opacity="1"></use></g></g></g></g></g></svg>