<?xml version="1.0" encoding="UTF-8" standalone="no"?>
<!DOCTYPE svg PUBLIC "-//W3C//DTD SVG 1.1//EN" "http://www.w3.org/Graphics/SVG/1.1/DTD/svg11.dtd">
<svg version="1.1" xmlns="http://www.w3.org/2000/svg" xmlns:xlink="http://www.w3.org/1999/xlink" preserveAspectRatio="xMidYMid meet" viewBox="0 0 420 595" width="420" height="595"><defs><path d="M0 0L420 0L420 595L0 595L0 0Z" id="a1SvLfGhc"></path><clipPath id="clipa6l8KqZBy"><use xlink:href="#a1SvLfGhc" opacity="1"></use></clipPath><path d="M62.68 345.72C51.62 339.66 46.9 324.53 52.14 311.82C55.11 304.63 82.65 241.17 133.91 230.23C163.81 223.89 193.64 236.71 222.63 268.38C241.78 289.3 259.75 298.25 276 294.99C301.86 289.8 322.62 254.33 327.86 242.31C333.36 229.71 346.7 224.6 357.7 230.9C368.69 237.2 373.14 252.51 367.65 265.12C366.42 267.95 336.83 334.58 283.66 345.24C252.73 351.47 221.88 338.01 191.95 305.32C173.91 285.62 157.16 277.22 142.16 280.37C117.46 285.54 97.8 320.64 92.31 333.72C88.48 342.86 80.51 348.2 72.21 348.2C69.01 348.2 65.76 347.41 62.68 345.72Z" id="b1pR3wwfis"></path></defs><g><g><g><use xlink:href="#a1SvLfGhc" opacity="1" fill="#ffffff" fill-opacity="1"></use><g clip-path="url(#clipa6l8KqZBy)"><use xlink:href="#a1SvLfGhc" opacity="1" fill-opacity="0" stroke="#000000" stroke-width="12" stroke-opacity="1"></use></g></g><g><use xlink:href="#b1pR3wwfis" opacity="1" fill="#485fd2" fill-opacity="1"></use><g><use xlink:href="#b1pR3wwfis" opacity="1" fill-opacity="0" stroke="#485fd2" stroke-width="6" stroke-opacity="1"></use></g></g></g></g></svg>