<?xml version="1.0" encoding="UTF-8" standalone="no"?>
<!DOCTYPE svg PUBLIC "-//W3C//DTD SVG 1.1//EN" "http://www.w3.org/Graphics/SVG/1.1/DTD/svg11.dtd">
<svg version="1.1" xmlns="http://www.w3.org/2000/svg" xmlns:xlink="http://www.w3.org/1999/xlink" preserveAspectRatio="xMidYMid meet" viewBox="0 0 420 595" width="420" height="595"><defs><path d="M420 0L420 595L0 595L0 0L420 0Z" id="aPmckGygI"></path><clipPath id="clipf4fNlTF73l"><use xlink:href="#aPmckGygI" opacity="1"></use></clipPath><path d="M62.68 345.72C51.62 339.66 46.9 324.53 52.14 311.82C55.11 304.63 82.65 241.17 133.91 230.23C163.81 223.89 193.64 236.71 222.63 268.38C241.78 289.3 259.75 298.25 276 294.99C301.86 289.8 322.62 254.33 327.86 242.31C333.36 229.71 346.7 224.6 357.7 230.9C368.69 237.2 373.14 252.51 367.65 265.12C366.42 267.95 336.83 334.58 283.66 345.24C252.73 351.47 221.88 338.01 191.95 305.32C173.91 285.62 157.16 277.22 142.16 280.37C117.46 285.54 97.8 320.64 92.31 333.72C88.48 342.86 80.51 348.2 72.21 348.2C69.01 348.2 65.76 347.41 62.68 345.72Z" id="n4nSfrbkrV"></path><path d="M200.98 248.29L200.98 313.52L196.88 308.72L196.88 246.12L192.77 242.48L192.77 305.23L188.67 301.75L188.67 240.16L184.57 237.83L184.57 298.26L180.47 293.61L180.47 236.67L176.37 234.35L176.37 291.29L172.27 288.96L172.27 233.18L168.16 232.02L168.16 286.64L164.06 284.32L164.06 229.91L159.96 228.54L159.96 281.99L155.86 280.83L155.86 228.54L151.76 228.54L151.76 280.83L147.66 280.83L147.66 228.54L143.55 228.54L143.55 280.83L139.45 280.83L139.45 228.54L135.35 228.54L135.35 281.99L131.25 284.32L131.25 230.86L127.15 232.02L127.15 286.64L123.05 288.96L123.05 234.35L118.95 235.51L118.95 292.45L114.84 298.26L114.84 236.67L110.74 240.16L110.74 304.07L106.64 309.88L106.64 242.48L102.54 245.97L102.54 315.69L98.44 321.5L98.44 248.29L94.34 252.94L94.34 327.31L90.06 336.61L89.41 257.59L86.13 261.07L86.13 342.42L82.03 344.75L82.03 264.56L77.93 270.37L77.93 345.63L73.83 347.07L73.83 276.18L69.73 280.83L69.73 346.28L65.63 344.75L65.63 289.31L61.52 295.94L61.52 342.42L57.42 338.94L57.42 305.23" id="a46uXGgF58"></path><path d="M365.04 238.25L365.04 271.09L360.94 278.93L360.94 234.77L356.97 231.28L356.84 287.06L352.73 291.71L352.73 228.96L348.63 228.96L348.63 298.68L344.53 304.49L344.53 228.96L340.43 228.96L340.43 307.72L336.33 312.63L336.33 232.44L332.23 235.93L332.23 317.28L328.13 321.92L328.13 244.06L324.02 251.04L324.02 324.96L319.92 327.74L319.92 258.01L315.82 264.98L315.82 331.22L311.72 333.55L311.72 269.63L307.62 274.28L307.62 335.87L303.52 338.19L303.52 278.93L299.41 282.41L299.41 340.52L295.31 342.84L295.15 284.74L291.21 288.22L291.21 344.01L286.95 345.17L287.11 290.68L283.01 292.87L283.01 345.17L279.06 346.33L278.91 294.2L274.8 295.2L274.8 346.58L270.7 346.33L270.7 295.2L266.6 295.2L266.6 346.33L262.5 346.33L262.5 294.86L258.4 294.03L258.4 346.65L254.3 346.33L254.3 292.87L250.2 290.55L250.2 345.32L246.36 344.01L246.09 289.39L241.99 287.06L241.99 342.84L237.89 340.52L237.89 283.58L233.79 278.93L233.79 338.19L229.69 335.87L229.69 275.44L225.59 271.95L225.59 333.55L221.7 331.22L221.48 267.31L217.19 263.82L217.38 327.74L213.28 324.83L213.28 259.17L209.18 255.1L209.18 322.08L205.08 318.44L205.08 252.73L200.98 248.71" id="e2WR4vHyXm"></path><path d="M53.32 336.03L53.32 309.88" id="aFUE4Xrmx"></path></defs><g><g><g><use xlink:href="#aPmckGygI" opacity="1" fill="#ffffff" fill-opacity="1"></use><g clip-path="url(#clipf4fNlTF73l)"><use xlink:href="#aPmckGygI" opacity="1" fill-opacity="0" stroke="#000000" stroke-width="12" stroke-opacity="1"></use></g></g><g><g><use xlink:href="#n4nSfrbkrV" opacity="1" fill-opacity="0" stroke="#ff0000" stroke-width="6" stroke-opacity="1"></use></g></g><g><g><g><g><use xlink:href="#a46uXGgF58" opacity="1" fill-opacity="0" stroke="#ff0000" stroke-width="1" stroke-opacity="1"></use></g></g><g><g><use xlink:href="#e2WR4vHyXm" opacity="1" fill-opacity="0" stroke="#ff0000" stroke-width="1" stroke-opacity="1"></use></g></g></g><g><g><use xlink:href="#aFUE4Xrmx" opacity="1" fill-opacity="0" stroke="#ff0000" stroke-width="1" stroke-opacity="1"></use></g></g></g></g></g></svg>