<?xml version="1.0" encoding="UTF-8" standalone="no"?>
<!DOCTYPE svg PUBLIC "-//W3C//DTD SVG 1.1//EN" "http://www.w3.org/Graphics/SVG/1.1/DTD/svg11.dtd">
<svg version="1.1" xmlns="http://www.w3.org/2000/svg" xmlns:xlink="http://www.w3.org/1999/xlink" preserveAspectRatio="xMidYMid meet" viewBox="0 0 420 595" width="420" height="595"><defs><path d="M0 0L420 0L420 595L0 595L0 0Z" id="a63tMG6Io"></path><clipPath id="clipa23oJ1MtZ"><use xlink:href="#a63tMG6Io" opacity="1"></use></clipPath><path d="M62.68 434.52C51.62 428.46 46.9 413.33 52.14 400.62C55.11 393.43 82.65 329.97 133.91 319.03C163.81 312.69 193.64 325.51 222.63 357.18C241.78 378.1 259.75 387.05 276 383.79C301.86 378.6 322.62 343.13 327.86 331.11C333.36 318.51 346.7 313.4 357.7 319.7C368.69 326 373.14 341.31 367.65 353.92C366.42 356.75 336.83 423.38 283.66 434.04C252.73 440.27 221.88 426.81 191.95 394.12C173.91 374.42 157.16 366.02 142.16 369.17C117.46 374.34 97.8 409.44 92.31 422.52C88.48 431.66 80.51 437 72.21 437C69.01 437 65.76 436.21 62.68 434.52Z" id="b1KOvEhGT"></path><path d="M62.68 274.51C51.62 268.46 46.9 253.32 52.14 240.62C55.11 233.42 82.65 169.96 133.91 159.03C163.81 152.68 193.64 165.5 222.63 197.18C241.78 218.1 259.75 227.05 276 223.78C301.86 218.6 322.62 183.12 327.86 171.11C333.36 158.5 346.7 153.4 357.7 159.69C368.69 165.99 373.14 181.31 367.65 193.91C366.42 196.74 336.83 263.38 283.66 274.03C252.73 280.26 221.88 266.8 191.95 234.12C173.91 214.42 157.16 206.01 142.16 209.16C117.46 214.33 97.8 249.43 92.31 262.52C88.48 271.65 80.51 277 72.21 277C69.01 277 65.76 276.2 62.68 274.51Z" id="c3g2IbVNUO"></path></defs><g><g><g><use xlink:href="#a63tMG6Io" opacity="1" fill="#ffffff" fill-opacity="1"></use><g clip-path="url(#clipa23oJ1MtZ)"><use xlink:href="#a63tMG6Io" opacity="1" fill-opacity="0" stroke="#000000" stroke-width="12" stroke-opacity="1"></use></g></g><g><use xlink:href="#b1KOvEhGT" opacity="1" fill="#485fd2" fill-opacity="1"></use><g><use xlink:href="#b1KOvEhGT" opacity="1" fill-opacity="0" stroke="#485fd2" stroke-width="6" stroke-opacity="1"></use></g></g><g><use xlink:href="#c3g2IbVNUO" opacity="1" fill="#485fd2" fill-opacity="1"></use><g><use xlink:href="#c3g2IbVNUO" opacity="1" fill-opacity="0" stroke="#485fd2" stroke-width="6" stroke-opacity="1"></use></g></g></g></g></svg>