<?xml version="1.0" encoding="UTF-8" standalone="no"?>
<!DOCTYPE svg PUBLIC "-//W3C//DTD SVG 1.1//EN" "http://www.w3.org/Graphics/SVG/1.1/DTD/svg11.dtd">
<svg version="1.1" xmlns="http://www.w3.org/2000/svg" xmlns:xlink="http://www.w3.org/1999/xlink" preserveAspectRatio="xMidYMid meet" viewBox="0 0 420 595" width="420" height="595"><defs><path d="M0 0L420 0L420 595L0 595L0 0Z" id="a1LIglUsvQ"></path><clipPath id="clipb13MkcSHet"><use xlink:href="#a1LIglUsvQ" opacity="1"></use></clipPath><path d="M62.68 355.01C51.62 348.96 46.9 333.82 52.14 321.12C55.11 313.92 82.65 250.46 133.91 239.53C163.81 233.19 193.64 246.01 222.63 277.68C241.78 298.6 259.75 307.55 276 304.29C301.86 299.1 322.62 263.62 327.86 251.61C333.36 239.01 346.7 233.9 357.7 240.19C368.69 246.49 373.14 261.81 367.65 274.42C366.42 277.24 336.83 343.88 283.66 354.54C252.73 360.76 221.88 347.31 191.95 314.62C173.91 294.92 157.16 286.52 142.16 289.66C117.46 294.84 97.8 329.93 92.31 343.02C88.48 352.15 80.51 357.5 72.21 357.5C69.01 357.5 65.76 356.7 62.68 355.01Z" id="b3jPkCsUEo"></path><path d="M62.68 494.51C51.62 488.46 46.9 473.32 52.14 460.62C55.11 453.42 82.65 389.96 133.91 379.03C163.81 372.69 193.64 385.51 222.63 417.18C241.78 438.1 259.75 447.05 276 443.79C301.86 438.6 322.62 403.12 327.86 391.11C333.36 378.51 346.7 373.4 357.7 379.69C368.69 385.99 373.14 401.31 367.65 413.92C366.42 416.74 336.83 483.38 283.66 494.04C252.73 500.26 221.88 486.81 191.95 454.12C173.91 434.42 157.16 426.02 142.16 429.16C117.46 434.34 97.8 469.43 92.31 482.52C88.48 491.65 80.51 497 72.21 497C69.01 497 65.76 496.2 62.68 494.51Z" id="a1HEt7TMWC"></path><path d="M62.68 214.51C51.62 208.46 46.9 193.32 52.14 180.62C55.11 173.42 82.65 109.96 133.91 99.03C163.81 92.69 193.64 105.51 222.63 137.18C241.78 158.1 259.75 167.05 276 163.79C301.86 158.6 322.62 123.12 327.86 111.11C333.36 98.51 346.7 93.4 357.7 99.69C368.69 105.99 373.14 121.31 367.65 133.92C366.42 136.74 336.83 203.38 283.66 214.04C252.73 220.26 221.88 206.81 191.95 174.12C173.91 154.42 157.16 146.02 142.16 149.16C117.46 154.34 97.8 189.43 92.31 202.52C88.48 211.65 80.51 217 72.21 217C69.01 217 65.76 216.2 62.68 214.51Z" id="d2XkDtpajh"></path></defs><g><g><g><use xlink:href="#a1LIglUsvQ" opacity="1" fill="#ffffff" fill-opacity="1"></use><g clip-path="url(#clipb13MkcSHet)"><use xlink:href="#a1LIglUsvQ" opacity="1" fill-opacity="0" stroke="#000000" stroke-width="12" stroke-opacity="1"></use></g></g><g><g><use xlink:href="#b3jPkCsUEo" opacity="1" fill-opacity="0" stroke="#485fd2" stroke-width="6" stroke-opacity="1"></use></g></g><g><g><use xlink:href="#a1HEt7TMWC" opacity="1" fill-opacity="0" stroke="#485fd2" stroke-width="6" stroke-opacity="1"></use></g></g><g><g><use xlink:href="#d2XkDtpajh" opacity="1" fill-opacity="0" stroke="#485fd2" stroke-width="6" stroke-opacity="1"></use></g></g></g></g></svg>