<?xml version="1.0" encoding="UTF-8" standalone="no"?>
<!DOCTYPE svg PUBLIC "-//W3C//DTD SVG 1.1//EN" "http://www.w3.org/Graphics/SVG/1.1/DTD/svg11.dtd">
<svg version="1.1" xmlns="http://www.w3.org/2000/svg" xmlns:xlink="http://www.w3.org/1999/xlink" preserveAspectRatio="xMidYMid meet" viewBox="0 0 420 595" width="420" height="595"><defs><path d="M420 0L420 595L0 595L0 0L420 0Z" id="a6vZFWsSUB"></path><clipPath id="clipbiM3dALiP"><use xlink:href="#a6vZFWsSUB" opacity="1"></use></clipPath><path d="M200.98 337.09L200.98 402.32L196.88 397.52L196.88 334.92L192.77 331.28L192.77 394.04L188.67 390.55L188.67 328.96L184.57 326.63L184.57 387.06L180.47 382.41L180.47 325.47L176.37 323.15L176.37 380.09L172.27 377.77L172.27 321.98L168.16 320.82L168.16 375.44L164.06 373.12L164.06 318.71L159.96 317.34L159.96 370.79L155.86 369.63L155.86 317.34L151.76 317.34L151.76 369.63L147.66 369.63L147.66 317.34L143.55 317.34L143.55 369.63L139.45 369.63L139.45 317.34L135.35 317.34L135.35 370.79L131.25 373.12L131.25 319.66L127.15 320.82L127.15 375.44L123.05 377.77L123.05 323.15L118.95 324.31L118.95 381.25L114.84 387.06L114.84 325.47L110.74 328.96L110.74 392.87L106.64 398.68L106.64 331.28L102.54 334.77L102.54 404.49L98.44 410.3L98.44 337.09L94.34 341.74L94.34 416.12L90.06 425.41L89.41 346.39L86.13 349.88L86.13 431.22L82.03 433.55L82.03 353.36L77.93 359.17L77.93 434.43L73.83 435.87L73.83 364.98L69.73 369.63L69.73 435.08L65.63 433.55L65.63 378.11L61.52 384.74L61.52 431.22L57.42 427.74L57.42 394.04" id="djourgJ0V"></path><path d="M365.04 327.05L365.04 359.89L360.94 367.73L360.94 323.57L356.97 320.08L356.84 375.86L352.73 380.51L352.73 317.76L348.63 317.76L348.63 387.48L344.53 393.29L344.53 317.76L340.43 317.76L340.43 396.52L336.33 401.43L336.33 321.24L332.23 324.73L332.23 406.08L328.13 410.73L328.13 332.86L324.02 339.84L324.02 413.77L319.92 416.54L319.92 346.81L315.82 353.78L315.82 420.02L311.72 422.35L311.72 358.43L307.62 363.08L307.62 424.67L303.52 427L303.52 367.73L299.41 371.21L299.41 429.32L295.31 431.64L295.15 373.54L291.21 377.02L291.21 432.81L286.95 433.97L287.11 379.48L283.01 381.67L283.01 433.97L279.06 435.13L278.91 383L274.8 384L274.8 435.38L270.7 435.13L270.7 384L266.6 384L266.6 435.13L262.5 435.13L262.5 383.66L258.4 382.84L258.4 435.45L254.3 435.13L254.3 381.67L250.2 379.35L250.2 434.12L246.36 432.81L246.09 378.19L241.99 375.86L241.99 431.64L237.89 429.32L237.89 372.38L233.79 367.73L233.79 427L229.69 424.67L229.69 364.24L225.59 360.76L225.59 422.35L221.7 420.02L221.48 356.11L217.19 352.62L217.38 416.54L213.28 413.63L213.28 347.97L209.18 343.9L209.18 410.88L205.08 407.24L205.08 341.53L200.98 337.51" id="a411xCi9eG"></path><path d="M53.32 424.83L53.32 398.68" id="d62MgCiUD"></path><path d="M87.89 344.47L92.27 344.47L92.27 427.36L87.89 427.36L87.89 344.47Z" id="d2DV7GSq5H"></path><path d="M62.68 434.52C51.62 428.46 46.9 413.33 52.14 400.62C55.11 393.43 82.65 329.97 133.91 319.04C163.81 312.69 193.64 325.51 222.63 357.18C241.78 378.11 259.75 387.05 276 383.79C301.86 378.6 322.62 343.13 327.86 331.11C333.36 318.51 346.7 313.41 357.7 319.7C368.69 326 373.14 341.31 367.65 353.92C366.42 356.75 336.83 423.38 283.66 434.04C252.73 440.27 221.88 426.81 191.95 394.12C173.91 374.42 157.16 366.02 142.16 369.17C117.46 374.34 97.8 409.44 92.31 422.53C88.48 431.66 80.51 437 72.21 437C69.01 437 65.76 436.21 62.68 434.52Z" id="e1c9vDrC32"></path><path d="M90.23 425.81L90.23 344.47" id="a3GhX0Vl0"></path><path d="M200.98 177.09L200.98 242.32L196.88 237.52L196.88 174.92L192.77 171.28L192.77 234.04L188.67 230.55L188.67 168.96L184.57 166.63L184.57 227.06L180.47 222.41L180.47 165.47L176.37 163.15L176.37 220.09L172.27 217.77L172.27 161.99L168.16 160.82L168.16 215.44L164.06 213.12L164.06 158.71L159.96 157.34L159.96 210.79L155.86 209.63L155.86 157.34L151.76 157.34L151.76 209.63L147.66 209.63L147.66 157.34L143.55 157.34L143.55 209.63L139.45 209.63L139.45 157.34L135.35 157.34L135.35 210.79L131.25 213.12L131.25 159.66L127.15 160.82L127.15 215.44L123.05 217.77L123.05 163.15L118.95 164.31L118.95 221.25L114.84 227.06L114.84 165.47L110.74 168.96L110.74 232.87L106.64 238.68L106.64 171.28L102.54 174.77L102.54 244.5L98.44 250.31L98.44 177.09L94.34 181.74L94.34 256.12L90.06 265.41L89.41 186.39L86.13 189.88L86.13 271.22L82.03 273.55L82.03 193.36L77.93 199.17L77.93 274.43L73.83 275.87L73.83 204.98L69.73 209.63L69.73 275.08L65.63 273.55L65.63 218.11L61.52 224.74L61.52 271.22L57.42 267.74L57.42 234.04" id="c71qHpwnD"></path><path d="M365.04 167.05L365.04 199.89L360.94 207.73L360.94 163.57L356.97 160.08L356.84 215.86L352.73 220.51L352.73 157.76L348.63 157.76L348.63 227.48L344.53 233.3L344.53 157.76L340.43 157.76L340.43 236.53L336.33 241.43L336.33 161.24L332.23 164.73L332.23 246.08L328.13 250.73L328.13 172.87L324.02 179.84L324.02 253.77L319.92 256.54L319.92 186.81L315.82 193.78L315.82 260.02L311.72 262.35L311.72 198.43L307.62 203.08L307.62 264.67L303.52 267L303.52 207.73L299.41 211.21L299.41 269.32L295.31 271.64L295.15 213.54L291.21 217.03L291.21 272.81L286.95 273.97L287.11 219.48L283.01 221.67L283.01 273.97L279.06 275.13L278.91 223L274.8 224L274.8 275.38L270.7 275.13L270.7 224L266.6 224L266.6 275.13L262.5 275.13L262.5 223.66L258.4 222.84L258.4 275.45L254.3 275.13L254.3 221.67L250.2 219.35L250.2 274.12L246.36 272.81L246.09 218.19L241.99 215.86L241.99 271.64L237.89 269.32L237.89 212.38L233.79 207.73L233.79 267L229.69 264.67L229.69 204.24L225.59 200.76L225.59 262.35L221.7 260.02L221.48 196.11L217.19 192.62L217.38 256.54L213.28 253.63L213.28 187.97L209.18 183.91L209.18 250.89L205.08 247.24L205.08 181.53L200.98 177.51" id="b2fmBRMPGC"></path><path d="M53.32 264.83L53.32 238.68" id="c4wHxmmBd"></path><path d="M87.89 184.47L92.27 184.47L92.27 267.36L87.89 267.36L87.89 184.47Z" id="cV1dPDWZZ"></path><path d="M62.68 274.52C51.62 268.46 46.9 253.33 52.14 240.62C55.11 233.43 82.65 169.97 133.91 159.04C163.81 152.69 193.64 165.51 222.63 197.19C241.78 218.11 259.75 227.05 276 223.79C301.86 218.6 322.62 183.13 327.86 171.11C333.36 158.51 346.7 153.41 357.7 159.7C368.69 166 373.14 181.32 367.65 193.92C366.42 196.75 336.83 263.38 283.66 274.04C252.73 280.27 221.88 266.81 191.95 234.12C173.91 214.42 157.16 206.02 142.16 209.17C117.46 214.34 97.8 249.44 92.31 262.53C88.48 271.66 80.51 277 72.21 277C69.01 277 65.76 276.21 62.68 274.52Z" id="dBNUUmSwe"></path><path d="M90.23 265.81L90.23 184.47" id="cN316FMjm"></path></defs><g><g><g><use xlink:href="#a6vZFWsSUB" opacity="1" fill="#ffffff" fill-opacity="1"></use><g clip-path="url(#clipbiM3dALiP)"><use xlink:href="#a6vZFWsSUB" opacity="1" fill-opacity="0" stroke="#000000" stroke-width="12" stroke-opacity="1"></use></g></g><g><g><g><g><g><use xlink:href="#djourgJ0V" opacity="1" fill-opacity="0" stroke="#485fd2" stroke-width="1" stroke-opacity="1"></use></g></g><g><g><use xlink:href="#a411xCi9eG" opacity="1" fill-opacity="0" stroke="#485fd2" stroke-width="1" stroke-opacity="1"></use></g></g></g><g><g><use xlink:href="#d62MgCiUD" opacity="1" fill-opacity="0" stroke="#485fd2" stroke-width="1" stroke-opacity="1"></use></g></g></g><g><use xlink:href="#d2DV7GSq5H" opacity="1" fill="#ffffff" fill-opacity="1"></use></g><g><g><use xlink:href="#e1c9vDrC32" opacity="1" fill-opacity="0" stroke="#485fd2" stroke-width="6" stroke-opacity="1"></use></g></g><g><g><use xlink:href="#a3GhX0Vl0" opacity="1" fill-opacity="0" stroke="#485fd2" stroke-width="1" stroke-opacity="1"></use></g></g></g><g><g><g><g><g><use xlink:href="#c71qHpwnD" opacity="1" fill-opacity="0" stroke="#485fd2" stroke-width="1" stroke-opacity="1"></use></g></g><g><g><use xlink:href="#b2fmBRMPGC" opacity="1" fill-opacity="0" stroke="#485fd2" stroke-width="1" stroke-opacity="1"></use></g></g></g><g><g><use xlink:href="#c4wHxmmBd" opacity="1" fill-opacity="0" stroke="#485fd2" stroke-width="1" stroke-opacity="1"></use></g></g></g><g><use xlink:href="#cV1dPDWZZ" opacity="1" fill="#ffffff" fill-opacity="1"></use></g><g><g><use xlink:href="#dBNUUmSwe" opacity="1" fill-opacity="0" stroke="#485fd2" stroke-width="6" stroke-opacity="1"></use></g></g><g><g><use xlink:href="#cN316FMjm" opacity="1" fill-opacity="0" stroke="#485fd2" stroke-width="1" stroke-opacity="1"></use></g></g></g></g></g></svg>