<?xml version="1.0" encoding="UTF-8" standalone="no"?>
<!DOCTYPE svg PUBLIC "-//W3C//DTD SVG 1.1//EN" "http://www.w3.org/Graphics/SVG/1.1/DTD/svg11.dtd">
<svg version="1.1" xmlns="http://www.w3.org/2000/svg" xmlns:xlink="http://www.w3.org/1999/xlink" preserveAspectRatio="xMidYMid meet" viewBox="0 0 420 595" width="420" height="595"><defs><path d="M420 0L420 595L0 595L0 0L420 0Z" id="akxHoL8y3"></path><clipPath id="clipa6Ma7vJJGA"><use xlink:href="#akxHoL8y3" opacity="1"></use></clipPath><path d="M200.98 257.59L200.98 322.82L196.88 318.02L196.88 255.42L192.77 251.78L192.77 314.53L188.67 311.04L188.67 249.45L184.57 247.13L184.57 307.56L180.47 302.91L180.47 245.97L176.37 243.64L176.37 300.59L172.27 298.26L172.27 242.48L168.16 241.32L168.16 295.94L164.06 293.61L164.06 239.21L159.96 237.83L159.96 291.29L155.86 290.13L155.86 237.83L151.76 237.83L151.76 290.13L147.66 290.13L147.66 237.83L143.55 237.83L143.55 290.13L139.45 290.13L139.45 237.83L135.35 237.83L135.35 291.29L131.25 293.61L131.25 240.16L127.15 241.32L127.15 295.94L123.05 298.26L123.05 243.64L118.95 244.8L118.95 301.75L114.84 307.56L114.84 245.97L110.74 249.45L110.74 313.37L106.64 319.18L106.64 251.78L102.54 255.26L102.54 324.99L98.44 330.8L98.44 257.59L94.34 262.24L94.34 336.61L90.06 345.91L89.41 266.88L86.13 270.37L86.13 351.72L82.03 354.04L82.03 273.86L77.93 279.67L77.93 354.93L73.83 356.37L73.83 285.48L69.73 290.13L69.73 355.58L65.63 354.04L65.63 298.61L61.52 305.23L61.52 351.72L57.42 348.23L57.42 314.53" id="bmouiOfhO"></path><path d="M365.04 247.55L365.04 280.38L360.94 288.22L360.94 244.06L356.97 240.58L356.84 296.36L352.73 301.01L352.73 238.25L348.63 238.25L348.63 307.98L344.53 313.79L344.53 238.25L340.43 238.25L340.43 317.02L336.33 321.92L336.33 241.74L332.23 245.23L332.23 326.57L328.13 331.22L328.13 253.36L324.02 260.33L324.02 334.26L319.92 337.03L319.92 267.31L315.82 274.28L315.82 340.52L311.72 342.84L311.72 278.93L307.62 283.58L307.62 345.17L303.52 347.49L303.52 288.22L299.41 291.71L299.41 349.82L295.31 352.14L295.15 294.03L291.21 297.52L291.21 353.3L286.95 354.46L287.11 299.98L283.01 302.17L283.01 354.46L279.06 355.63L278.91 303.49L274.8 304.49L274.8 355.88L270.7 355.63L270.7 304.49L266.6 304.49L266.6 355.63L262.5 355.63L262.5 304.16L258.4 303.33L258.4 355.95L254.3 355.63L254.3 302.17L250.2 299.84L250.2 354.62L246.36 353.3L246.09 298.68L241.99 296.36L241.99 352.14L237.89 349.82L237.89 292.87L233.79 288.22L233.79 347.49L229.69 345.17L229.69 284.74L225.59 281.25L225.59 342.84L221.7 340.52L221.48 276.6L217.19 273.12L217.38 337.03L213.28 334.13L213.28 268.47L209.18 264.4L209.18 331.38L205.08 327.74L205.08 262.02L200.98 258.01" id="c4N7wmqfO"></path><path d="M53.32 345.33L53.32 319.18" id="a11oePVuWf"></path><path d="M87.89 264.96L92.27 264.96L92.27 347.85L87.89 347.85L87.89 264.96Z" id="b1dNRsx333"></path><path d="M62.68 355.01C51.62 348.96 46.9 333.82 52.14 321.12C55.11 313.92 82.65 250.46 133.91 239.53C163.81 233.19 193.64 246.01 222.63 277.68C241.78 298.6 259.75 307.55 276 304.29C301.86 299.1 322.62 263.62 327.86 251.61C333.36 239.01 346.7 233.9 357.7 240.19C368.69 246.49 373.14 261.81 367.65 274.42C366.42 277.24 336.83 343.88 283.66 354.54C252.73 360.76 221.88 347.31 191.95 314.62C173.91 294.92 157.16 286.52 142.16 289.66C117.46 294.84 97.8 329.93 92.31 343.02C88.48 352.15 80.51 357.5 72.21 357.5C69.01 357.5 65.76 356.7 62.68 355.01Z" id="b16on8QtL"></path><path d="M90.23 346.31L90.23 264.96" id="jSZjOpw8y"></path><path d="M200.98 397.09L200.98 462.32L196.88 457.52L196.88 394.92L192.77 391.28L192.77 454.03L188.67 450.54L188.67 388.95L184.57 386.63L184.57 447.06L180.47 442.41L180.47 385.47L176.37 383.14L176.37 440.08L172.27 437.76L172.27 381.98L168.16 380.82L168.16 435.44L164.06 433.11L164.06 378.71L159.96 377.33L159.96 430.79L155.86 429.63L155.86 377.33L151.76 377.33L151.76 429.63L147.66 429.63L147.66 377.33L143.55 377.33L143.55 429.63L139.45 429.63L139.45 377.33L135.35 377.33L135.35 430.79L131.25 433.11L131.25 379.65L127.15 380.82L127.15 435.44L123.05 437.76L123.05 383.14L118.95 384.3L118.95 441.25L114.84 447.06L114.84 385.47L110.74 388.95L110.74 452.87L106.64 458.68L106.64 391.28L102.54 394.76L102.54 464.49L98.44 470.3L98.44 397.09L94.34 401.73L94.34 476.11L90.06 485.41L89.41 406.38L86.13 409.87L86.13 491.22L82.03 493.54L82.03 413.36L77.93 419.17L77.93 494.43L73.83 495.87L73.83 424.98L69.73 429.63L69.73 495.07L65.63 493.54L65.63 438.11L61.52 444.73L61.52 491.22L57.42 487.73L57.42 454.03" id="c1xSo1d4xr"></path><path d="M365.04 387.05L365.04 419.88L360.94 427.72L360.94 383.56L356.97 380.08L356.84 435.86L352.73 440.51L352.73 377.75L348.63 377.75L348.63 447.48L344.53 453.29L344.53 377.75L340.43 377.75L340.43 456.52L336.33 461.42L336.33 381.24L332.23 384.72L332.23 466.07L328.13 470.72L328.13 392.86L324.02 399.83L324.02 473.76L319.92 476.53L319.92 406.8L315.82 413.78L315.82 480.02L311.72 482.34L311.72 418.43L307.62 423.07L307.62 484.67L303.52 486.99L303.52 427.72L299.41 431.21L299.41 489.31L295.31 491.64L295.15 433.53L291.21 437.02L291.21 492.8L286.95 493.96L287.11 439.48L283.01 441.67L283.01 493.96L279.06 495.12L278.91 442.99L274.8 443.99L274.8 495.38L270.7 495.12L270.7 443.99L266.6 443.99L266.6 495.12L262.5 495.12L262.5 443.65L258.4 442.83L258.4 495.44L254.3 495.12L254.3 441.67L250.2 439.34L250.2 494.12L246.36 492.8L246.09 438.18L241.99 435.86L241.99 491.64L237.89 489.31L237.89 432.37L233.79 427.72L233.79 486.99L229.69 484.67L229.69 424.24L225.59 420.75L225.59 482.34L221.7 480.02L221.48 416.1L217.19 412.61L217.38 476.53L213.28 473.63L213.28 407.97L209.18 403.9L209.18 470.88L205.08 467.23L205.08 401.52L200.98 397.51" id="b4GST1Y8c"></path><path d="M53.32 484.83L53.32 458.68" id="a1UW1gPoV"></path><path d="M87.89 404.46L92.27 404.46L92.27 487.35L87.89 487.35L87.89 404.46Z" id="bYTsouxav"></path><path d="M62.68 494.51C51.62 488.46 46.9 473.32 52.14 460.62C55.11 453.42 82.65 389.96 133.91 379.03C163.81 372.69 193.64 385.5 222.63 417.18C241.78 438.1 259.75 447.05 276 443.79C301.86 438.6 322.62 403.12 327.86 391.11C333.36 378.51 346.7 373.4 357.7 379.69C368.69 385.99 373.14 401.31 367.65 413.91C366.42 416.74 336.83 483.38 283.66 494.03C252.73 500.26 221.88 486.8 191.95 454.12C173.91 434.42 157.16 426.01 142.16 429.16C117.46 434.33 97.8 469.43 92.31 482.52C88.48 491.65 80.51 497 72.21 497C69.01 497 65.76 496.2 62.68 494.51Z" id="dwz1H4mS"></path><path d="M90.23 485.81L90.23 404.46" id="b4I7QHPL8n"></path><path d="M200.98 117.09L200.98 182.32L196.88 177.52L196.88 114.92L192.77 111.28L192.77 174.03L188.67 170.55L188.67 108.95L184.57 106.63L184.57 167.06L180.47 162.41L180.47 105.47L176.37 103.14L176.37 160.09L172.27 157.76L172.27 101.98L168.16 100.82L168.16 155.44L164.06 153.11L164.06 98.71L159.96 97.33L159.96 150.79L155.86 149.63L155.86 97.33L151.76 97.33L151.76 149.63L147.66 149.63L147.66 97.33L143.55 97.33L143.55 149.63L139.45 149.63L139.45 97.33L135.35 97.33L135.35 150.79L131.25 153.11L131.25 99.66L127.15 100.82L127.15 155.44L123.05 157.76L123.05 103.14L118.95 104.31L118.95 161.25L114.84 167.06L114.84 105.47L110.74 108.95L110.74 172.87L106.64 178.68L106.64 111.28L102.54 114.76L102.54 184.49L98.44 190.3L98.44 117.09L94.34 121.74L94.34 196.11L90.06 205.41L89.41 126.39L86.13 129.87L86.13 211.22L82.03 213.54L82.03 133.36L77.93 139.17L77.93 214.43L73.83 215.87L73.83 144.98L69.73 149.63L69.73 215.08L65.63 213.54L65.63 158.11L61.52 164.73L61.52 211.22L57.42 207.73L57.42 174.03" id="dvrES9YJ0"></path><path d="M365.04 107.05L365.04 139.88L360.94 147.72L360.94 103.56L356.97 100.08L356.84 155.86L352.73 160.51L352.73 97.75L348.63 97.75L348.63 167.48L344.53 173.29L344.53 97.75L340.43 97.75L340.43 176.52L336.33 181.43L336.33 101.24L332.23 104.73L332.23 186.07L328.13 190.72L328.13 112.86L324.02 119.83L324.02 193.76L319.92 196.53L319.92 126.81L315.82 133.78L315.82 200.02L311.72 202.34L311.72 138.43L307.62 143.08L307.62 204.67L303.52 206.99L303.52 147.72L299.41 151.21L299.41 209.32L295.31 211.64L295.15 153.53L291.21 157.02L291.21 212.8L286.95 213.96L287.11 159.48L283.01 161.67L283.01 213.96L279.06 215.13L278.91 162.99L274.8 163.99L274.8 215.38L270.7 215.13L270.7 163.99L266.6 163.99L266.6 215.13L262.5 215.13L262.5 163.66L258.4 162.83L258.4 215.45L254.3 215.13L254.3 161.67L250.2 159.35L250.2 214.12L246.36 212.8L246.09 158.18L241.99 155.86L241.99 211.64L237.89 209.32L237.89 152.37L233.79 147.72L233.79 206.99L229.69 204.67L229.69 144.24L225.59 140.75L225.59 202.34L221.7 200.02L221.48 136.1L217.19 132.62L217.38 196.53L213.28 193.63L213.28 127.97L209.18 123.9L209.18 190.88L205.08 187.24L205.08 121.52L200.98 117.51" id="adSYjiM0U"></path><path d="M53.32 204.83L53.32 178.68" id="acZl5hxWf"></path><path d="M87.89 124.46L92.27 124.46L92.27 207.35L87.89 207.35L87.89 124.46Z" id="cdtbUdIPw"></path><path d="M62.68 214.51C51.62 208.46 46.9 193.33 52.14 180.62C55.11 173.42 82.65 109.96 133.91 99.03C163.81 92.69 193.64 105.51 222.63 137.18C241.78 158.1 259.75 167.05 276 163.79C301.86 158.6 322.62 123.12 327.86 111.11C333.36 98.51 346.7 93.4 357.7 99.69C368.69 105.99 373.14 121.31 367.65 133.92C366.42 136.75 336.83 203.38 283.66 214.04C252.73 220.27 221.88 206.81 191.95 174.12C173.91 154.42 157.16 146.02 142.16 149.17C117.46 154.34 97.8 189.43 92.31 202.52C88.48 211.65 80.51 217 72.21 217C69.01 217 65.76 216.2 62.68 214.51Z" id="b1cGSzaQki"></path><path d="M90.23 205.81L90.23 124.46" id="c3A2nxbPJo"></path></defs><g><g><g><use xlink:href="#akxHoL8y3" opacity="1" fill="#ffffff" fill-opacity="1"></use><g clip-path="url(#clipa6Ma7vJJGA)"><use xlink:href="#akxHoL8y3" opacity="1" fill-opacity="0" stroke="#000000" stroke-width="12" stroke-opacity="1"></use></g></g><g><g><g><g><g><use xlink:href="#bmouiOfhO" opacity="1" fill-opacity="0" stroke="#28d23a" stroke-width="1" stroke-opacity="1"></use></g></g><g><g><use xlink:href="#c4N7wmqfO" opacity="1" fill-opacity="0" stroke="#28d23a" stroke-width="1" stroke-opacity="1"></use></g></g></g><g><g><use xlink:href="#a11oePVuWf" opacity="1" fill-opacity="0" stroke="#28d23a" stroke-width="1" stroke-opacity="1"></use></g></g></g><g><use xlink:href="#b1dNRsx333" opacity="1" fill="#ffffff" fill-opacity="1"></use></g><g><g><use xlink:href="#b16on8QtL" opacity="1" fill-opacity="0" stroke="#28d23a" stroke-width="6" stroke-opacity="1"></use></g></g><g><g><use xlink:href="#jSZjOpw8y" opacity="1" fill-opacity="0" stroke="#28d23a" stroke-width="1" stroke-opacity="1"></use></g></g></g><g><g><g><g><g><use xlink:href="#c1xSo1d4xr" opacity="1" fill-opacity="0" stroke="#28d23a" stroke-width="1" stroke-opacity="1"></use></g></g><g><g><use xlink:href="#b4GST1Y8c" opacity="1" fill-opacity="0" stroke="#28d23a" stroke-width="1" stroke-opacity="1"></use></g></g></g><g><g><use xlink:href="#a1UW1gPoV" opacity="1" fill-opacity="0" stroke="#28d23a" stroke-width="1" stroke-opacity="1"></use></g></g></g><g><use xlink:href="#bYTsouxav" opacity="1" fill="#ffffff" fill-opacity="1"></use></g><g><g><use xlink:href="#dwz1H4mS" opacity="1" fill-opacity="0" stroke="#28d23a" stroke-width="6" stroke-opacity="1"></use></g></g><g><g><use xlink:href="#b4I7QHPL8n" opacity="1" fill-opacity="0" stroke="#28d23a" stroke-width="1" stroke-opacity="1"></use></g></g></g><g><g><g><g><g><use xlink:href="#dvrES9YJ0" opacity="1" fill-opacity="0" stroke="#28d23a" stroke-width="1" stroke-opacity="1"></use></g></g><g><g><use xlink:href="#adSYjiM0U" opacity="1" fill-opacity="0" stroke="#28d23a" stroke-width="1" stroke-opacity="1"></use></g></g></g><g><g><use xlink:href="#acZl5hxWf" opacity="1" fill-opacity="0" stroke="#28d23a" stroke-width="1" stroke-opacity="1"></use></g></g></g><g><use xlink:href="#cdtbUdIPw" opacity="1" fill="#ffffff" fill-opacity="1"></use></g><g><g><use xlink:href="#b1cGSzaQki" opacity="1" fill-opacity="0" stroke="#28d23a" stroke-width="6" stroke-opacity="1"></use></g></g><g><g><use xlink:href="#c3A2nxbPJo" opacity="1" fill-opacity="0" stroke="#28d23a" stroke-width="1" stroke-opacity="1"></use></g></g></g></g></g></svg>